<svg width="301" height="48" viewBox="0 0 301 48" fill="none" xmlns="http://www.w3.org/2000/svg">
<rect y="0.0644531" width="48.0318" height="47.1691" rx="10" fill="#BCE7FF"/>
<path fill-rule="evenodd" clip-rule="evenodd" d="M24.535 37.058C31.989 37.058 38.0318 31.0153 38.0318 23.5612C38.0318 16.1072 31.989 10.0645 24.535 10.0645C17.0809 10.0645 11.0382 16.1072 11.0382 23.5612C11.0382 25.868 11.6169 28.0396 12.637 29.9388C12.6326 32.3864 12.1116 36.0022 10 37.058C10 37.399 11.5117 37.4712 17.5138 35.0902C19.5594 36.3387 21.9632 37.058 24.535 37.058ZM24.535 33.023C19.3094 33.023 15.0732 28.7868 15.0732 23.5612C15.0732 18.3356 19.3094 14.0994 24.535 14.0994C29.7606 14.0994 33.9968 18.3356 33.9968 23.5612C33.9968 28.7868 29.7606 33.023 24.535 33.023Z" fill="#0779B8"/>
<g clip-path="url(#clip0_4_693)">
<path d="M212.764 37.8826C211.119 37.8826 209.816 37.8826 208.305 37.8826C208.305 29.7835 208.305 21.8002 208.305 13.8459C212.178 12.8614 212.843 13.1076 214.776 16.119C216.52 18.8351 218.275 21.5396 220.246 24.5887C220.923 23.6911 221.477 23.0338 221.947 22.3186C223.588 19.8225 225.186 17.2975 226.828 14.8044C227.653 13.5535 230.712 12.8354 231.925 13.649C232.261 13.8749 232.535 14.4569 232.532 14.8768C232.517 22.4112 232.459 29.9456 232.401 37.4801C232.401 37.5438 232.301 37.6075 232.103 37.842C230.954 37.842 229.659 37.842 228.096 37.842C228.096 32.5778 228.096 26.4075 228.096 21.149C228.032 21.149 222.852 28.5687 220.299 32.2506C217.78 28.5644 215.441 25.1389 212.764 21.2211C212.764 27.0906 212.764 32.3519 212.764 37.8826Z" fill="#0779B8"/>
<path d="M58.0317 33.7834C58.8599 32.7902 59.6356 31.8549 60.5016 30.8125C61.3648 31.3714 62.0267 31.8491 62.7353 32.2487C64.8028 33.4099 66.9665 34.2062 69.4072 33.824C71.1452 33.5518 72.5041 32.4196 72.542 31.0905C72.5857 29.4776 71.4077 28.7305 70.1217 28.2904C67.7626 27.4825 65.2869 26.9903 62.9803 26.0666C59.0465 24.4885 57.5418 19.8757 59.9068 16.3633C60.7699 15.0806 62.2483 13.876 63.7064 13.3721C68.2029 11.8143 72.3466 12.9349 76.3387 15.8276C75.5339 17.0062 74.8136 18.0631 74.1867 18.9839C72.0842 18.2252 70.2646 17.4318 68.3691 16.9424C67.4739 16.7137 66.2725 16.7977 65.4939 17.2349C64.6716 17.6953 63.7968 18.6943 63.6772 19.5572C63.581 20.255 64.4208 21.2975 65.1207 21.8303C65.873 22.4065 66.9374 22.5947 67.8792 22.9016C69.4597 23.4171 71.0898 23.7993 72.6324 24.4016C75.7671 25.6235 77.2281 27.6302 77.1494 30.5606C77.0677 33.6502 75.598 35.819 72.7403 37.1858C68.4275 39.2504 60.5512 37.2698 58.0317 33.7834Z" fill="black"/>
<path d="M132.84 16.7224C132.035 17.675 131.207 18.6596 130.248 19.7975C127.437 17.8372 124.585 16.0738 121.179 17.2668C119.68 17.7909 118.131 18.7696 117.131 19.9713C114.504 23.1304 114.761 28.3223 117.475 31.1976C119.199 33.0219 121.383 34.2959 123.914 33.7429C126.121 33.2593 128.183 32.1213 130.635 31.1426C131.19 31.7217 132.018 32.5904 132.843 33.4533C130.463 37.2292 125.206 38.955 120.004 37.6896C114.734 36.4068 110.978 32.0316 110.631 26.7644C110.211 20.4027 113.055 15.622 118.531 13.4793C123.517 11.5363 129.557 12.8422 132.84 16.7224Z" fill="black"/>
<path d="M171.912 37.3566C171.399 37.4811 171.163 37.5767 170.921 37.5883C167.413 37.7591 167.407 37.7591 166.019 34.516C164.193 30.2507 162.385 25.9797 160.554 21.7173C160.175 20.8342 159.732 19.9771 159.111 18.674C157.072 23.4634 155.229 27.7924 153.387 32.1213C153.031 32.9611 152.663 33.795 152.305 34.6318C150.864 37.9937 150.753 38.0487 146.738 37.2813C146.872 36.7341 146.927 36.1578 147.146 35.654C150.228 28.5973 153.384 21.5725 156.387 14.4869C157.026 12.9783 158.006 12.9146 159.315 12.9146C160.554 12.9117 161.493 12.9957 162.085 14.3827C165.202 21.6942 168.422 28.9651 171.597 36.2534C171.726 36.5458 171.775 36.8673 171.912 37.3566Z" fill="black"/>
<path d="M247.575 18.6855C244.802 25.1718 242.201 31.2468 239.544 37.455C238.112 37.455 236.657 37.455 234.873 37.455C235.572 35.7958 236.15 34.3712 236.768 32.9639C239.497 26.7441 242.276 20.5474 244.939 14.3016C245.496 12.9927 246.373 12.9175 247.511 12.9493C248.663 12.9783 249.776 12.7234 250.409 14.2002C253.643 21.7346 256.959 29.2314 260.236 36.7456C260.292 36.8759 260.222 37.0612 260.201 37.371C259.854 37.4405 259.475 37.5853 259.093 37.5853C255.139 37.5737 256.014 38.0168 254.55 34.7244C252.634 30.4157 250.858 26.0433 249.007 21.7057C248.63 20.8109 248.181 19.9538 247.575 18.6855Z" fill="#0779B8"/>
<path d="M193.546 37.4522C187.589 37.4522 182.04 37.4522 176.234 37.4522C176.234 29.3763 176.234 21.3496 176.234 13.2013C177.663 13.2013 178.946 13.2013 180.523 13.2013C180.523 19.9336 180.523 26.5096 180.523 33.3404C184.854 33.3404 188.904 33.3404 193.261 33.3404C193.357 34.7592 193.438 35.9349 193.546 37.4522Z" fill="black"/>
<path d="M137.853 13.1492C139.325 13.1492 140.544 13.1492 142.014 13.1492C142.014 21.2656 142.014 29.2865 142.014 37.4348C141.253 37.4956 140.606 37.5854 139.958 37.5912C139.314 37.597 138.666 37.5159 137.85 37.4638C137.853 29.3705 137.853 21.4046 137.853 13.1492Z" fill="black"/>
<path d="M267.214 13.1549C268.693 13.1549 269.918 13.1549 271.393 13.1549C271.393 21.2685 271.393 29.2922 271.393 37.4579C269.961 37.4579 268.67 37.4579 267.214 37.4579C267.214 29.3907 267.214 21.419 267.214 13.1549Z" fill="#0779B8"/>
<path d="M261.35 16.9888C261.662 17.0872 262.039 17.1307 262.499 17.1249C263.473 17.1104 264.447 17.1046 265.421 17.0988C264.433 17.0988 263.444 17.1017 262.456 17.0959C262.103 17.093 261.744 17.0467 261.35 16.9888Z" fill="#0779B8"/>
<path d="M273.187 13.1318C269.609 13.1289 266.033 13.1376 262.455 13.1057C261.995 13.1028 261.607 13.1405 261.286 13.2447C261.581 13.1926 261.872 13.1492 262.164 13.1492C265.838 13.126 269.512 13.1521 273.187 13.1318Z" fill="#0779B8"/>
<path d="M277.26 13.2418C276.948 13.1434 276.572 13.0999 276.111 13.1057C275.137 13.1202 274.161 13.126 273.187 13.1318C269.512 13.1521 265.838 13.126 262.164 13.1463C261.872 13.1492 261.581 13.1897 261.286 13.2418C260.639 13.4503 260.274 13.9397 260.263 15.0053C260.248 16.1693 260.595 16.7484 261.35 16.9859C261.744 17.0467 262.103 17.093 262.456 17.093C263.444 17.0988 264.433 17.0959 265.421 17.0959C268.999 17.0988 272.577 17.0901 276.155 17.122C276.616 17.1249 277.004 17.0872 277.324 16.983C277.972 16.7745 278.336 16.2851 278.348 15.2195C278.365 14.0584 278.016 13.4793 277.26 13.2418Z" fill="#0779B8"/>
<path d="M297.982 22.809C297.982 24.2857 297.982 25.4063 297.982 26.8773C294.036 26.8773 290.17 26.8773 286.143 26.8773C286.143 29.078 286.143 30.9341 286.143 33.1406C289.365 33.1406 292.505 33.1406 295.646 33.1406C296.063 33.1406 296.48 33.1406 296.897 33.1406C300.253 33.1377 300.434 33.3867 299.632 37.1278C293.707 37.1278 287.741 37.1278 281.337 37.1278C281.337 35.3818 281.337 33.682 281.337 31.9823C281.34 29.4979 281.351 27.0105 281.34 24.5261C281.334 23.5908 281.567 22.8234 282.664 22.8176C287.723 22.7974 292.782 22.809 297.982 22.809Z" fill="#0779B8"/>
<path d="M299.486 13.0971C299.486 14.3625 299.486 15.3267 299.486 16.4908C298.839 16.595 298.212 16.7774 297.585 16.7803C292.934 16.8064 288.286 16.7543 283.638 16.8238C282.066 16.8469 281.378 16.3547 281.398 14.7071C281.419 13.1087 282.215 12.793 283.594 12.8046C288.16 12.8481 292.727 12.8133 297.294 12.8336C297.938 12.8336 298.582 12.9813 299.486 13.0971Z" fill="#0779B8"/>
<path fill-rule="evenodd" clip-rule="evenodd" d="M93.5667 39.1426C101.021 39.1426 107.063 33.0999 107.063 25.6458C107.063 18.1918 101.021 12.149 93.5667 12.149C86.1127 12.149 80.07 18.1918 80.07 25.6458C80.07 27.9526 80.6486 30.1242 81.6688 32.0234C81.6643 34.471 81.1433 38.0868 79.0317 39.1426C79.0317 39.4836 80.5434 39.5558 86.5455 37.1748C88.5911 38.4233 90.9949 39.1426 93.5667 39.1426ZM93.5667 35.1076C88.3411 35.1076 84.1049 30.8714 84.1049 25.6458C84.1049 20.4202 88.3411 16.184 93.5667 16.184C98.7923 16.184 103.029 20.4202 103.029 25.6458C103.029 30.8714 98.7923 35.1076 93.5667 35.1076Z" fill="#0779B8"/>
</g>
<defs>
<clipPath id="clip0_4_693">
<rect x="58.0317" y="8.14905" width="242" height="31" fill="white"/>
</clipPath>
</defs>
</svg>
