<svg width="262" height="281" viewBox="0 0 262 281" fill="none" xmlns="http://www.w3.org/2000/svg">
<path d="M223.124 140.779C171.96 108.86 89.2686 108.86 38.4155 140.779C-12.4376 172.699 -12.138 224.449 39.0312 256.398C90.2005 288.347 172.892 288.324 223.74 256.398C274.587 224.473 274.299 172.699 223.124 140.779Z" fill="#F5F5F5"/>
<path d="M13.9375 194.879C17.5595 192.62 23.4225 192.62 27.0279 194.879C30.6333 197.138 30.6111 200.812 26.9835 203.078C23.3559 205.343 17.4985 205.337 13.8931 203.078C10.2877 200.818 10.3098 197.144 13.9375 194.879Z" fill="#E0E0E0"/>
<path d="M201.83 228.309C191.696 221.992 175.327 221.992 165.26 228.309C155.192 234.625 155.248 244.88 165.376 251.196C175.505 257.513 191.884 257.519 201.946 251.196C212.008 244.874 211.958 234.631 201.83 228.309Z" fill="#E0E0E0"/>
<path d="M231.805 180.37C235.61 177.972 241.756 177.972 245.539 180.37C249.321 182.767 249.294 186.591 245.494 188.964C241.695 191.337 235.538 191.361 231.76 188.964C227.983 186.567 228 182.743 231.805 180.37Z" fill="#E0E0E0"/>
<path d="M161.116 138.592L153.6 133.911C152.446 133.191 151.137 132.812 149.804 132.812C148.471 132.812 147.161 133.191 146.007 133.911L104.311 160.023L100.634 157.734L70.4538 176.816L73.9372 178.979L24.5817 209.772C24.1957 210.011 23.8749 210.357 23.6519 210.773C23.4288 211.189 23.3113 211.661 23.3113 212.142C23.3113 212.623 23.4288 213.096 23.6519 213.512C23.8749 213.928 24.1957 214.273 24.5817 214.512L32.1753 219.241C33.3313 219.962 34.6427 220.342 35.9776 220.342C37.3125 220.342 38.6239 219.962 39.78 219.241L89.1021 188.419L94.8708 192.014C97.1791 193.453 99.7969 194.21 102.462 194.21C105.126 194.21 107.744 193.453 110.052 192.014L127.802 180.951C128.316 180.631 128.743 180.17 129.039 179.615C129.336 179.06 129.492 178.431 129.492 177.79C129.492 177.149 129.336 176.519 129.039 175.964C128.743 175.409 128.316 174.949 127.802 174.628L119.482 169.462L126.488 165.069L128.912 163.547L161.138 143.344C161.525 143.102 161.845 142.755 162.067 142.336C162.288 141.918 162.404 141.443 162.402 140.961C162.4 140.479 162.28 140.006 162.054 139.59C161.828 139.174 161.505 138.829 161.116 138.592Z" fill="#E0E0E0"/>
<path d="M203.322 57.2175L204.98 56.1747L222.492 67.0582V69.1258L203.322 57.2175Z" fill="#F5F5F5"/>
<path d="M203.322 57.2175L222.492 69.1258V71.4931L203.322 59.5908V57.2175Z" fill="#E0E0E0"/>
<path d="M224.305 70.2465L225.964 69.2037L243.475 80.0872V82.1548L224.305 70.2465Z" fill="#F5F5F5"/>
<path d="M224.305 70.2465L243.475 82.1548V84.522L224.305 72.6197V70.2465Z" fill="#E0E0E0"/>
<path d="M152.153 25.3761L153.811 24.3333L171.322 35.2167V37.2844L152.153 25.3761Z" fill="#F5F5F5"/>
<path d="M152.153 25.3761L171.322 37.2844V39.6517L152.153 27.7494V25.3761Z" fill="#E0E0E0"/>
<path d="M173.136 38.4051L174.795 37.3683L192.306 48.2458V50.3194L173.136 38.4051Z" fill="#F5F5F5"/>
<path d="M173.136 38.4052L192.306 50.3194V52.6807L173.136 40.7784V38.4052Z" fill="#E0E0E0"/>
<path d="M203.416 37.3323L205.075 36.2896L204.975 100.134L203.322 101.177L203.416 37.3323Z" fill="#F0F0F0"/>
<path d="M203.322 101.177L204.975 100.134L224.05 111.964L222.392 113.007L203.322 101.177Z" fill="#F5F5F5"/>
<path d="M201.525 33.7784L224.405 47.9821L224.3 116.561L201.408 102.376L201.525 33.7784ZM222.397 113.001L222.497 49.1627L203.416 37.3324L203.322 101.177L222.392 113.001" fill="#E0E0E0"/>
<path d="M201.519 33.7784L203.172 32.7356L226.058 46.9452L224.4 47.9821L201.519 33.7784Z" fill="#F5F5F5"/>
<path d="M224.4 47.9821L226.058 46.9453L225.947 115.518L224.294 116.561L224.4 47.9821Z" fill="#F0F0F0"/>
<path d="M224.4 50.3614L226.058 49.3246L225.964 113.163L224.305 114.206L224.4 50.3614Z" fill="#F0F0F0"/>
<path d="M224.305 114.206L225.964 113.163L245.034 124.993L243.375 126.036L224.305 114.206Z" fill="#F5F5F5"/>
<path d="M222.503 46.8075L245.389 61.0231L245.278 129.596L222.392 115.381L222.503 46.8075ZM243.375 126.036L243.475 62.2218L224.4 50.3914L224.305 114.236L243.375 126.066" fill="#E0E0E0"/>
<path d="M222.503 46.8074L224.161 45.7646L247.042 59.9743L245.389 61.0111L222.503 46.8074Z" fill="#F5F5F5"/>
<path d="M245.389 61.0112L247.042 59.9744L246.936 128.547L245.278 129.59L245.389 61.0112Z" fill="#F0F0F0"/>
<path d="M152.247 5.49103L153.905 4.45422L153.806 68.2928L152.153 69.3356L152.247 5.49103Z" fill="#F0F0F0"/>
<path d="M152.153 69.3355L153.806 68.2927L172.881 80.1231L171.223 81.1599L152.153 69.3355Z" fill="#F5F5F5"/>
<path d="M150.35 1.93713L173.236 16.1468L173.131 84.7199L150.245 70.5102L150.35 1.93713ZM171.223 81.166L171.322 17.3214L152.247 5.49104L152.158 69.3356L171.228 81.166" fill="#E0E0E0"/>
<path d="M150.35 1.93709L152.003 0.894287L174.889 15.1039L173.23 16.1467L150.35 1.93709Z" fill="#F5F5F5"/>
<path d="M173.231 16.1467L174.889 15.1039L174.778 83.677L173.125 84.7198L173.231 16.1467Z" fill="#F0F0F0"/>
<path d="M173.231 18.52L174.889 17.4832L174.795 81.3217L173.136 82.3645L173.231 18.52Z" fill="#F0F0F0"/>
<path d="M173.136 82.3646L174.795 81.3218L193.865 93.1522L192.206 94.195L173.136 82.3646Z" fill="#F5F5F5"/>
<path d="M171.333 14.9661L194.22 29.1757L194.109 97.7488L171.223 83.5392L171.333 14.9661ZM192.206 94.1949L192.306 30.3504L173.236 18.52L173.142 82.3645L192.212 94.1949" fill="#E0E0E0"/>
<path d="M171.333 14.9661L172.992 13.9233L195.873 28.133L194.22 29.1758L171.333 14.9661Z" fill="#F5F5F5"/>
<path d="M194.22 29.1757L195.873 28.1329L195.767 96.706L194.109 97.7488L194.22 29.1757Z" fill="#F0F0F0"/>
<path d="M11.6799 181.862L20.4605 182.138L29.2411 181.862C29.6183 188.269 28.4646 194.801 26.8671 197.99C26.4912 198.808 25.8855 199.477 25.1365 199.901C22.5461 201.519 18.3583 201.519 15.7846 199.901C15.0209 199.472 14.4089 198.783 14.0429 197.942C12.4454 194.735 11.3027 188.239 11.6799 181.862Z" fill="white"/>
<path d="M14.2702 177.973C10.8312 180.124 10.809 183.6 14.2314 185.764C17.6538 187.927 23.2061 187.915 26.6507 185.764C30.0952 183.612 30.1063 180.142 26.6895 177.973C23.2727 175.803 17.7092 175.827 14.2702 177.973Z" fill="#EBEBEB"/>
<path d="M15.6292 178.83C12.9446 180.502 12.9335 183.217 15.6292 184.895C18.325 186.573 22.6348 186.567 25.3139 184.895C27.993 183.223 28.0152 180.502 25.3472 178.83C22.6792 177.158 18.3139 177.158 15.6292 178.83Z" fill="#E0E0E0"/>
<g opacity="0.15">
<path opacity="0.15" d="M15.6292 178.83C12.9446 180.502 12.9335 183.217 15.6292 184.895C18.325 186.573 22.6348 186.567 25.3139 184.895C27.993 183.223 28.0152 180.502 25.3472 178.83C22.6792 177.158 18.3139 177.158 15.6292 178.83Z" fill="black"/>
</g>
<path d="M6.02216 141.373C25.8131 148.373 25.9906 162.678 21.5532 172.866C20.4438 174.928 17.0215 176.037 14.0595 163.367L19.2568 164.087L13.1997 160.766L11.6022 155.714L16.6498 156.122L10.2433 153.209C9.06461 149.173 7.65485 145.22 6.02216 141.373Z" fill="#5096F1"/>
<path opacity="0.2" d="M6.02216 141.373C25.8131 148.373 25.9906 162.678 21.5532 172.866C20.4438 174.928 17.0215 176.037 14.0595 163.367L19.2568 164.087L13.1997 160.766L11.6022 155.714L16.6498 156.122L10.2433 153.209C9.06461 149.173 7.65485 145.22 6.02216 141.373Z" fill="black"/>
<path opacity="0.2" d="M6.02216 141.373C25.8131 148.373 25.9906 162.678 21.5532 172.866C20.4438 174.928 17.0215 176.037 14.0595 163.367L19.2568 164.087L13.1997 160.766L11.6022 155.714L16.6498 156.122L10.2433 153.209C9.06461 149.173 7.65485 145.22 6.02216 141.373Z" fill="white"/>
<path d="M11.6189 144.927C22.0524 153.485 22.9954 163.295 20.05 173.538C21.0928 164.542 22.2188 155.421 11.6189 144.927Z" fill="white"/>
<path d="M39.5581 155.9C20.05 158.897 17.6815 172.159 20.2719 182.449C21.0041 184.571 24.0049 186.213 28.7141 174.946L23.7608 174.682L29.9122 172.681L32.131 168.234L27.3552 167.7L33.7728 166.142C35.5054 162.603 37.4375 159.183 39.5581 155.9Z" fill="#8AB9F6"/>
<path opacity="0.2" d="M39.5581 155.9C20.05 158.897 17.6815 172.159 20.2719 182.449C21.0041 184.571 24.0049 186.213 28.7141 174.946L23.7608 174.682L29.9122 172.681L32.131 168.234L27.3552 167.7L33.7728 166.142C35.5054 162.603 37.4375 159.183 39.5581 155.9Z" fill="white"/>
<path opacity="0.1" d="M39.5581 155.9C20.05 158.897 17.6815 172.159 20.2719 182.449C21.0041 184.571 24.0049 186.213 28.7141 174.946L23.7608 174.682L29.9122 172.681L32.131 168.234L27.3552 167.7L33.7728 166.142C35.5054 162.603 37.4375 159.183 39.5581 155.9Z" fill="black"/>
<path d="M33.7784 158.231C22.7402 164.326 20.3551 173.298 21.5255 183.366C21.9415 174.778 22.2965 166.082 33.7784 158.231Z" fill="white"/>
<path d="M0.30896 160.88C18.2029 161.198 21.7141 172.866 20.4439 182.455C20.0057 184.457 17.4708 186.297 12.0571 176.714L16.4945 175.875L10.7425 174.814L8.25753 171.075L12.4953 170.026L6.54911 169.39C4.63412 166.417 2.55005 163.575 0.30896 160.88Z" fill="#5096F1"/>
<path d="M5.72266 162.307C16.3004 166.466 19.3844 174.293 19.3733 183.48C18.1309 175.767 16.9106 167.97 5.72266 162.307Z" fill="white"/>
<path opacity="0.2" d="M0.30896 160.88C18.2029 161.198 21.7141 172.866 20.4439 182.455C20.0057 184.457 17.4708 186.297 12.0571 176.714L16.4945 175.875L10.7425 174.814L8.25753 171.075L12.4953 170.026L6.54911 169.39C4.63412 166.417 2.55005 163.575 0.30896 160.88Z" fill="white"/>
<path d="M229.436 166.712L238.65 167.005L247.857 166.712C248.257 173.436 247.042 180.28 245.367 183.63C244.971 184.492 244.332 185.195 243.542 185.638C240.824 187.334 236.431 187.334 233.735 185.638C232.934 185.189 232.292 184.466 231.91 183.582C230.246 180.214 229.042 173.4 229.436 166.712Z" fill="white"/>
<path d="M232.16 162.636C228.549 164.89 228.532 168.539 232.115 170.787C235.699 173.034 241.545 173.04 245.139 170.787C248.734 168.533 248.767 164.89 245.184 162.636C241.6 160.383 235.765 160.389 232.16 162.636Z" fill="#EBEBEB"/>
<path d="M233.585 163.535C230.768 165.291 230.756 168.138 233.552 169.894C236.348 171.65 240.896 171.65 243.714 169.894C246.532 168.138 246.543 165.291 243.747 163.535C240.951 161.779 236.398 161.779 233.585 163.535Z" fill="#E0E0E0"/>
<g opacity="0.15">
<path opacity="0.15" d="M233.585 163.535C230.768 165.291 230.756 168.138 233.552 169.894C236.348 171.65 240.896 171.65 243.714 169.894C246.532 168.138 246.543 165.291 243.747 163.535C240.951 161.779 236.398 161.779 233.585 163.535Z" fill="black"/>
</g>
<path d="M243.348 146.347C244.845 144.339 246.581 142.535 247.957 140.42C248.894 138.981 249.677 137.213 249.283 135.505C249.063 134.721 248.645 134.018 248.076 133.475C247.506 132.933 246.808 132.574 246.06 132.437C244.547 132.194 243.005 132.568 241.733 133.486C240.473 134.397 239.367 135.534 238.461 136.848C233.277 143.943 230.825 152.924 231.616 161.923C231.633 162.954 231.93 163.956 232.47 164.806C232.803 165.229 233.241 165.54 233.733 165.7C234.225 165.861 234.75 165.865 235.244 165.711C237.756 164.908 237.424 161.246 237.834 159.118C238.719 154.453 240.621 150.084 243.381 146.371L243.348 146.347Z" fill="#8AB9F6"/>
<path opacity="0.2" d="M243.348 146.347C244.845 144.339 246.581 142.535 247.957 140.42C248.894 138.981 249.677 137.213 249.283 135.505C249.063 134.721 248.645 134.018 248.076 133.475C247.506 132.933 246.808 132.574 246.06 132.437C244.547 132.194 243.005 132.568 241.733 133.486C240.473 134.397 239.367 135.534 238.461 136.848C233.277 143.943 230.825 152.924 231.616 161.923C231.633 162.954 231.93 163.956 232.47 164.806C232.803 165.229 233.241 165.54 233.733 165.7C234.225 165.861 234.75 165.865 235.244 165.711C237.756 164.908 237.424 161.246 237.834 159.118C238.719 154.453 240.621 150.084 243.381 146.371L243.348 146.347Z" fill="white"/>
<path d="M235.066 162.984C235.115 162.974 235.159 162.947 235.191 162.907C235.223 162.866 235.242 162.815 235.244 162.762C235.421 158.411 236.73 143.584 246.204 135.128C246.227 135.109 246.245 135.085 246.259 135.058C246.273 135.03 246.281 135 246.284 134.969C246.286 134.939 246.283 134.908 246.274 134.878C246.265 134.849 246.251 134.821 246.232 134.798C246.215 134.769 246.193 134.743 246.167 134.724C246.14 134.704 246.11 134.691 246.078 134.685C246.047 134.68 246.014 134.681 245.983 134.691C245.952 134.7 245.924 134.716 245.899 134.738C236.287 143.29 234.961 158.315 234.806 162.72C234.804 162.783 234.825 162.843 234.865 162.889C234.904 162.935 234.958 162.963 235.016 162.966L235.066 162.984Z" fill="#F0F0F0"/>
<path d="M233.696 163.457C233.896 164.409 234.271 165.308 234.799 166.1C235.326 166.892 235.997 167.56 236.769 168.066C238.218 168.807 239.83 169.097 241.423 168.905C243.037 168.713 244.624 168.31 246.149 167.706C246.909 167.431 247.752 167.059 247.813 166.04C247.825 165.772 247.782 165.504 247.686 165.256C247.59 165.008 247.444 164.787 247.258 164.608C247.103 164.447 246.94 164.295 246.77 164.153C246.69 164.089 246.63 164 246.598 163.898C246.567 163.796 246.565 163.686 246.593 163.583C246.622 163.48 246.679 163.389 246.758 163.322C246.836 163.256 246.931 163.217 247.031 163.212C247.481 163.179 247.929 163.119 248.373 163.032C249.414 162.852 250.391 162.374 251.202 161.647C251.813 161.086 252.279 160.363 252.555 159.55C252.704 159.223 252.766 158.857 252.734 158.494C252.702 158.131 252.576 157.785 252.372 157.494C252.071 157.231 251.708 157.061 251.324 157.003C250.984 156.927 250.645 156.861 250.309 156.805C250.212 156.788 250.123 156.738 250.055 156.662C249.987 156.585 249.944 156.487 249.933 156.381C249.921 156.276 249.942 156.17 249.992 156.078C250.042 155.987 250.118 155.916 250.209 155.876L251.635 155.229C252.055 155.091 252.436 154.842 252.744 154.504C252.93 154.192 253.051 153.84 253.098 153.472C253.145 153.105 253.117 152.731 253.016 152.376C252.844 151.411 252.533 150.476 252.322 149.523C252.073 148.571 252.04 147.568 252.228 146.599C249.548 146.284 246.838 146.487 244.224 147.198C243.436 147.374 242.692 147.728 242.039 148.235C241.151 149.002 240.929 150.159 241.013 151.411C241.017 151.463 241.005 151.515 240.978 151.558C240.951 151.601 240.911 151.632 240.865 151.646C240.818 151.66 240.769 151.657 240.725 151.636C240.681 151.615 240.646 151.578 240.624 151.531L239.709 149.733C239.571 149.475 239.349 149.282 239.087 149.191C238.824 149.1 238.54 149.118 238.289 149.242C237.488 149.681 236.778 150.293 236.203 151.04C235.884 151.433 235.641 151.891 235.488 152.387C235.334 152.883 235.274 153.407 235.31 153.928C235.401 155.339 235.603 156.738 235.915 158.111C235.931 158.188 235.925 158.268 235.899 158.341C235.873 158.414 235.827 158.477 235.768 158.522C235.708 158.567 235.638 158.592 235.565 158.593C235.493 158.595 235.421 158.573 235.36 158.531L235.321 158.495C235.075 158.29 234.766 158.193 234.456 158.225C233.652 158.333 233.447 159.214 233.391 159.969C233.361 161.141 233.463 162.312 233.696 163.457Z" fill="#8AB9F6"/>
<path opacity="0.2" d="M233.696 163.457C233.896 164.409 234.271 165.308 234.799 166.1C235.326 166.892 235.997 167.56 236.769 168.066C238.218 168.807 239.83 169.097 241.423 168.905C243.037 168.713 244.624 168.31 246.149 167.706C246.909 167.431 247.752 167.059 247.813 166.04C247.825 165.772 247.782 165.504 247.686 165.256C247.59 165.008 247.444 164.787 247.258 164.608C247.103 164.447 246.94 164.295 246.77 164.153C246.69 164.089 246.63 164 246.598 163.898C246.567 163.796 246.565 163.686 246.593 163.583C246.622 163.48 246.679 163.389 246.758 163.322C246.836 163.256 246.931 163.217 247.031 163.212C247.481 163.179 247.929 163.119 248.373 163.032C249.414 162.852 250.391 162.374 251.202 161.647C251.813 161.086 252.279 160.363 252.555 159.55C252.704 159.223 252.766 158.857 252.734 158.494C252.702 158.131 252.576 157.785 252.372 157.494C252.071 157.231 251.708 157.061 251.324 157.003C250.984 156.927 250.645 156.861 250.309 156.805C250.212 156.788 250.123 156.738 250.055 156.662C249.987 156.585 249.944 156.487 249.933 156.381C249.921 156.276 249.942 156.17 249.992 156.078C250.042 155.987 250.118 155.916 250.209 155.876L251.635 155.229C252.055 155.091 252.436 154.842 252.744 154.504C252.93 154.192 253.051 153.84 253.098 153.472C253.145 153.105 253.117 152.731 253.016 152.376C252.844 151.411 252.533 150.476 252.322 149.523C252.073 148.571 252.04 147.568 252.228 146.599C249.548 146.284 246.838 146.487 244.224 147.198C243.436 147.374 242.692 147.728 242.039 148.235C241.151 149.002 240.929 150.159 241.013 151.411C241.017 151.463 241.005 151.515 240.978 151.558C240.951 151.601 240.911 151.632 240.865 151.646C240.818 151.66 240.769 151.657 240.725 151.636C240.681 151.615 240.646 151.578 240.624 151.531L239.709 149.733C239.571 149.475 239.349 149.282 239.087 149.191C238.824 149.1 238.54 149.118 238.289 149.242C237.488 149.681 236.778 150.293 236.203 151.04C235.884 151.433 235.641 151.891 235.488 152.387C235.334 152.883 235.274 153.407 235.31 153.928C235.401 155.339 235.603 156.738 235.915 158.111C235.931 158.188 235.925 158.268 235.899 158.341C235.873 158.414 235.827 158.477 235.768 158.522C235.708 158.567 235.638 158.592 235.565 158.593C235.493 158.595 235.421 158.573 235.36 158.531L235.321 158.495C235.075 158.29 234.766 158.193 234.456 158.225C233.652 158.333 233.447 159.214 233.391 159.969C233.361 161.141 233.463 162.312 233.696 163.457Z" fill="black"/>
<path opacity="0.2" d="M233.696 163.457C233.896 164.409 234.271 165.308 234.799 166.1C235.326 166.892 235.997 167.56 236.769 168.066C238.218 168.807 239.83 169.097 241.423 168.905C243.037 168.713 244.624 168.31 246.149 167.706C246.909 167.431 247.752 167.059 247.813 166.04C247.825 165.772 247.782 165.504 247.686 165.256C247.59 165.008 247.444 164.787 247.258 164.608C247.103 164.447 246.94 164.295 246.77 164.153C246.69 164.089 246.63 164 246.598 163.898C246.567 163.796 246.565 163.686 246.593 163.583C246.622 163.48 246.679 163.389 246.758 163.322C246.836 163.256 246.931 163.217 247.031 163.212C247.481 163.179 247.929 163.119 248.373 163.032C249.414 162.852 250.391 162.374 251.202 161.647C251.813 161.086 252.279 160.363 252.555 159.55C252.704 159.223 252.766 158.857 252.734 158.494C252.702 158.131 252.576 157.785 252.372 157.494C252.071 157.231 251.708 157.061 251.324 157.003C250.984 156.927 250.645 156.861 250.309 156.805C250.212 156.788 250.123 156.738 250.055 156.662C249.987 156.585 249.944 156.487 249.933 156.381C249.921 156.276 249.942 156.17 249.992 156.078C250.042 155.987 250.118 155.916 250.209 155.876L251.635 155.229C252.055 155.091 252.436 154.842 252.744 154.504C252.93 154.192 253.051 153.84 253.098 153.472C253.145 153.105 253.117 152.731 253.016 152.376C252.844 151.411 252.533 150.476 252.322 149.523C252.073 148.571 252.04 147.568 252.228 146.599C249.548 146.284 246.838 146.487 244.224 147.198C243.436 147.374 242.692 147.728 242.039 148.235C241.151 149.002 240.929 150.159 241.013 151.411C241.017 151.463 241.005 151.515 240.978 151.558C240.951 151.601 240.911 151.632 240.865 151.646C240.818 151.66 240.769 151.657 240.725 151.636C240.681 151.615 240.646 151.578 240.624 151.531L239.709 149.733C239.571 149.475 239.349 149.282 239.087 149.191C238.824 149.1 238.54 149.118 238.289 149.242C237.488 149.681 236.778 150.293 236.203 151.04C235.884 151.433 235.641 151.891 235.488 152.387C235.334 152.883 235.274 153.407 235.31 153.928C235.401 155.339 235.603 156.738 235.915 158.111C235.931 158.188 235.925 158.268 235.899 158.341C235.873 158.414 235.827 158.477 235.768 158.522C235.708 158.567 235.638 158.592 235.565 158.593C235.493 158.595 235.421 158.573 235.36 158.531L235.321 158.495C235.075 158.29 234.766 158.193 234.456 158.225C233.652 158.333 233.447 159.214 233.391 159.969C233.361 161.141 233.463 162.312 233.696 163.457Z" fill="white"/>
<path d="M237.928 167.826C238.431 165.513 239.153 163.262 240.081 161.108C240.081 161.075 240.088 161.042 240.101 161.011C240.114 160.981 240.134 160.955 240.158 160.934C240.208 160.814 240.253 160.7 240.308 160.581C240.043 157.887 239.319 155.27 238.172 152.861C238.144 152.806 238.137 152.742 238.153 152.681C238.168 152.621 238.205 152.569 238.256 152.538C238.307 152.507 238.366 152.5 238.422 152.517C238.478 152.533 238.526 152.573 238.555 152.628C239.631 154.877 240.343 157.31 240.657 159.819C242.477 155.87 245.383 151.255 249.871 147.881C249.894 147.863 249.92 147.85 249.948 147.842C249.976 147.835 250.005 147.834 250.034 147.839C250.062 147.844 250.089 147.855 250.114 147.872C250.138 147.888 250.159 147.91 250.176 147.935C250.209 147.987 250.222 148.051 250.213 148.114C250.204 148.176 250.173 148.233 250.126 148.271C245.494 151.747 242.577 156.571 240.802 160.575C243.189 159.408 245.84 159.02 248.429 159.46C248.457 159.466 248.483 159.477 248.507 159.494C248.531 159.511 248.552 159.533 248.568 159.559C248.584 159.585 248.595 159.613 248.6 159.644C248.606 159.674 248.606 159.705 248.6 159.736C248.596 159.766 248.585 159.796 248.57 159.823C248.555 159.849 248.534 159.872 248.51 159.89C248.487 159.908 248.46 159.92 248.431 159.927C248.403 159.933 248.374 159.933 248.345 159.927C248.306 159.927 244.113 159.094 240.497 161.282C239.574 163.422 238.856 165.659 238.356 167.958C238.348 168.005 238.328 168.049 238.297 168.083C238.267 168.117 238.227 168.141 238.184 168.15H238.1C238.068 168.144 238.037 168.131 238.009 168.11C237.982 168.09 237.959 168.064 237.943 168.032C237.926 168.001 237.916 167.967 237.914 167.931C237.911 167.895 237.916 167.86 237.928 167.826Z" fill="#F0F0F0"/>
<path d="M121.651 175.971L107.196 184.906C105.119 186.196 102.766 186.875 100.37 186.875C97.9752 186.875 95.6218 186.196 93.5451 184.906L82.8232 178.206C82.1984 177.817 81.6794 177.257 81.3182 176.583C80.957 175.909 80.7663 175.144 80.7653 174.365V166.454L78.5466 167.856V174.724C78.5464 175.635 78.7683 176.529 79.19 177.317C79.6117 178.105 80.2181 178.759 80.9483 179.213L93.706 187.148C95.7511 188.416 98.068 189.083 100.426 189.083C102.784 189.083 105.101 188.416 107.146 187.148L121.706 178.158C122.697 177.547 123.486 176.617 123.963 175.497C124.439 174.377 124.579 173.124 124.363 171.913C124.217 172.764 123.898 173.57 123.429 174.271C122.96 174.973 122.353 175.553 121.651 175.971Z" fill="#5096F1"/>
<path opacity="0.1" d="M121.651 175.971L107.196 184.906C105.119 186.196 102.766 186.875 100.37 186.875C97.9752 186.875 95.6218 186.196 93.5451 184.906L82.8232 178.206C82.1984 177.817 81.6794 177.257 81.3182 176.583C80.957 175.909 80.7663 175.144 80.7653 174.365V166.454L78.5466 167.856V174.724C78.5464 175.635 78.7683 176.529 79.19 177.317C79.6117 178.105 80.2181 178.759 80.9483 179.213L93.706 187.148C95.7511 188.416 98.068 189.083 100.426 189.083C102.784 189.083 105.101 188.416 107.146 187.148L121.706 178.158C122.697 177.547 123.486 176.617 123.963 175.497C124.439 174.377 124.579 173.124 124.363 171.913C124.217 172.764 123.898 173.57 123.429 174.271C122.96 174.973 122.353 175.553 121.651 175.971Z" fill="black"/>
<path d="M82.8232 178.206L93.5507 184.883C95.6273 186.172 97.9807 186.851 100.376 186.851C102.771 186.851 105.125 186.172 107.201 184.883L121.651 175.971C122.341 175.548 122.937 174.967 123.396 174.268C123.855 173.569 124.166 172.769 124.308 171.926C124.17 171.102 123.869 170.321 123.427 169.634C122.985 168.948 122.411 168.372 121.745 167.946L109.886 160.263C109.176 159.801 108.588 159.149 108.18 158.37C107.772 157.591 107.557 156.711 107.556 155.816V149.721L80.7487 166.466V174.377C80.7533 175.156 80.9474 175.919 81.3115 176.592C81.6756 177.264 82.1969 177.821 82.8232 178.206Z" fill="#8AB9F6"/>
<path opacity="0.4" d="M82.8232 178.206C82.1984 177.817 81.6794 177.257 81.3182 176.583C80.957 175.909 80.7663 175.144 80.7653 174.365V166.454L78.5466 167.856V174.724C78.5464 175.635 78.7683 176.529 79.19 177.317C79.6117 178.105 80.2181 178.759 80.9483 179.213L85.4634 182.03V179.83L82.8232 178.206Z" fill="black"/>
<path opacity="0.3" d="M82.8232 178.206L85.4357 179.83L113.425 162.552L109.892 160.263C109.182 159.801 108.594 159.149 108.186 158.37C107.778 157.591 107.563 156.711 107.562 155.816V149.721L80.7542 166.466V174.377C80.7583 175.155 80.9515 175.918 81.3146 176.59C81.6778 177.263 82.198 177.82 82.8232 178.206Z" fill="black"/>
<path d="M34.15 194.999L33.9447 95.9389C34.0207 94.4049 34.4305 92.9118 35.1408 91.581C35.8511 90.2502 36.8419 89.1192 38.0327 88.2797L152.003 17.3693C153.112 16.6681 154.149 16.5962 154.893 17.0457L150.6 14.3608C149.851 13.8454 148.791 13.8873 147.621 14.6185L33.6563 85.5349C32.466 86.373 31.4758 87.503 30.7664 88.833C30.057 90.1629 29.6483 91.6552 29.5739 93.1881L29.768 192.272C29.768 193.597 30.1895 194.543 30.8774 195.035L31.1048 195.173L35.337 197.84C34.6048 197.36 34.1555 196.383 34.15 194.999Z" fill="#5096F1"/>
<path opacity="0.2" d="M29.5739 93.1881L29.768 192.272C29.768 193.597 30.1895 194.543 30.8774 195.035L31.1048 195.173L35.337 197.84C34.6159 197.372 34.1666 196.395 34.1611 195.011L33.9558 95.9509C33.9902 94.5912 34.3188 93.2591 34.9154 92.0614L30.5335 89.3225C29.9417 90.5137 29.6132 91.8368 29.5739 93.1881Z" fill="black"/>
<path d="M156.119 19.9045C156.119 18.52 155.664 17.5492 154.943 17.0817H154.915C154.172 16.6322 153.151 16.7041 152.025 17.4053L38.0327 88.2798C36.8419 89.1192 35.8511 90.2503 35.1408 91.5811C34.4305 92.9119 34.0207 94.4049 33.9447 95.939L34.1499 194.999C34.1499 196.383 34.6048 197.36 35.3259 197.828L35.3924 197.864H35.4202C36.1634 198.283 37.1618 198.205 38.2657 197.516L152.236 126.624C153.426 125.786 154.417 124.656 155.128 123.326C155.838 121.996 156.248 120.504 156.324 118.97L156.119 19.9045ZM150.211 122.836L38.1936 192.53L37.9939 95.927C38.07 95.1647 38.2929 94.428 38.6482 93.7643C39.0036 93.1007 39.4836 92.5247 40.0573 92.0734L152.103 22.3796L152.302 118.982C152.222 119.747 151.994 120.484 151.634 121.148C151.274 121.812 150.789 122.387 150.211 122.836Z" fill="#8AB9F6"/>
<path d="M152.075 22.3795L149.174 24.1774L149.385 117.454C149.307 118.216 149.084 118.952 148.729 119.616C148.373 120.279 147.894 120.855 147.321 121.308L38.188 189.192V192.53L150.233 122.836C150.806 122.384 151.285 121.807 151.641 121.144C151.996 120.48 152.219 119.744 152.297 118.982L152.075 22.3795Z" fill="#5096F1"/>
<path d="M149.385 117.454L149.191 24.1835L40.0573 92.0734C39.4836 92.5246 39.0036 93.1006 38.6483 93.7643C38.2929 94.4279 38.07 95.1646 37.9939 95.9269L38.188 189.192L147.305 121.308C147.881 120.857 148.363 120.282 148.721 119.618C149.079 118.955 149.305 118.218 149.385 117.454Z" fill="#263238"/>
<path d="M51.4171 200.003L51.2063 106.373C51.2799 104.922 51.67 103.51 52.3448 102.253C53.0196 100.996 53.9599 99.9289 55.0891 99.1393L162.808 32.1184C163.873 31.4532 164.838 31.3872 165.543 31.8128L161.488 29.2597C160.778 28.7742 159.779 28.8162 158.67 29.5054L50.9512 96.5443C49.8211 97.3329 48.88 98.3995 48.2051 99.6569C47.5302 100.914 47.1407 102.327 47.0684 103.778L47.2626 197.408C47.2626 198.667 47.6564 199.56 48.2943 200.021C48.3625 200.072 48.4349 200.116 48.5106 200.153L52.5098 202.67C51.8498 202.233 51.4227 201.316 51.4171 200.003Z" fill="#455A64"/>
<path opacity="0.2" d="M161.488 29.2597C160.778 28.7742 159.78 28.8162 158.67 29.5054L50.9513 96.5443C49.6768 97.413 48.6513 98.6476 47.9893 100.11L52.1327 102.699C52.796 101.241 53.8191 100.009 55.0892 99.1393L162.808 32.1184C163.873 31.4532 164.838 31.3872 165.543 31.8128L161.488 29.2597Z" fill="white"/>
<path opacity="0.1" d="M47.0851 103.778L47.2792 197.408C47.2792 198.667 47.673 199.56 48.3109 200.021C48.3792 200.072 48.4516 200.116 48.5273 200.153L52.5265 202.67C51.8442 202.227 51.4171 201.31 51.4171 199.997L51.2064 106.373C51.2399 105.088 51.5515 103.83 52.116 102.699L47.9726 100.11C47.4154 101.241 47.1114 102.497 47.0851 103.778Z" fill="white"/>
<path d="M51.2341 111.803L51.4172 200.003C51.4172 201.316 51.8498 202.233 52.5265 202.676L52.5875 202.718C53.2864 203.114 54.2516 203.042 55.2777 202.388L163.03 135.38C164.159 134.59 165.099 133.523 165.774 132.266C166.449 131.009 166.839 129.597 166.913 128.146L166.73 39.7955L51.2341 111.803Z" fill="#455A64"/>
<path d="M56.792 115.261L161.188 50.1576L161.349 128.146C161.201 128.939 160.811 129.654 160.24 130.178L56.9528 194.466L56.792 115.261Z" fill="#455A64"/>
<path opacity="0.2" d="M51.2341 111.803L51.4172 200.003C51.4172 201.316 51.8498 202.233 52.5265 202.676L52.5875 202.718C53.2864 203.114 54.2516 203.042 55.2777 202.388L163.03 135.38C164.159 134.59 165.099 133.523 165.774 132.266C166.449 131.009 166.839 129.597 166.913 128.146L166.73 39.7955L51.2341 111.803Z" fill="white"/>
<path d="M162.242 45.6627C163.241 45.0634 164.056 45.5369 164.056 46.7834C164.024 47.4597 163.843 48.1181 163.53 48.7046C163.217 49.2911 162.779 49.7891 162.253 50.1575L69.9157 107.829C68.9228 108.429 68.1075 107.955 68.1019 106.714C68.1338 106.037 68.3139 105.378 68.6272 104.79C68.9406 104.203 69.3783 103.704 69.9046 103.334L162.242 45.6627Z" fill="#455A64"/>
<g opacity="0.8">
<path opacity="0.8" d="M162.242 45.6627C163.241 45.0634 164.056 45.5369 164.056 46.7834C164.024 47.4597 163.843 48.1181 163.53 48.7046C163.217 49.2911 162.779 49.7891 162.253 50.1575L69.9157 107.829C68.9228 108.429 68.1075 107.955 68.1019 106.714C68.1338 106.037 68.3139 105.378 68.6272 104.79C68.9406 104.203 69.3783 103.704 69.9046 103.334L162.242 45.6627Z" fill="white"/>
</g>
<path d="M56.3427 112.81C56.3618 112.8 56.3826 112.795 56.4037 112.795C56.4248 112.795 56.4456 112.8 56.4647 112.81C56.5424 112.852 56.5479 112.989 56.4647 113.121L55.91 114.284L57.8791 113.055C57.979 112.989 58.0622 113.055 58.0622 113.169C58.0582 113.237 58.0395 113.302 58.0077 113.361C57.9759 113.419 57.9319 113.468 57.8791 113.505L55.91 114.733L56.498 115.165C56.5701 115.213 56.5645 115.357 56.498 115.488C56.4676 115.544 56.4259 115.591 56.3759 115.626C56.3564 115.641 56.3332 115.649 56.3094 115.649C56.2856 115.649 56.2624 115.641 56.2428 115.626L55.3498 114.961C55.334 114.948 55.3208 114.932 55.311 114.913C55.3079 114.887 55.3079 114.861 55.311 114.835C55.3083 114.809 55.3083 114.783 55.311 114.757C55.3177 114.724 55.3289 114.691 55.3442 114.661L56.2095 112.941C56.242 112.885 56.2881 112.84 56.3427 112.81Z" fill="#455A64"/>
<path d="M61.3126 109.711C61.3327 109.695 61.357 109.686 61.382 109.686C61.4069 109.686 61.4312 109.695 61.4513 109.711L62.3166 110.34L62.3554 110.388C62.3581 110.414 62.3581 110.44 62.3554 110.466C62.3578 110.494 62.3578 110.522 62.3554 110.55L62.3222 110.64L61.4569 112.36C61.426 112.424 61.3801 112.478 61.3237 112.516C61.3042 112.527 61.2822 112.533 61.2599 112.533C61.2377 112.533 61.2157 112.527 61.1962 112.516C61.124 112.48 61.1185 112.336 61.1962 112.204L61.7841 111.042L59.815 112.27C59.7152 112.336 59.632 112.27 59.632 112.162C59.6342 112.094 59.652 112.026 59.684 111.967C59.7159 111.907 59.7609 111.857 59.815 111.821L61.7841 110.592L61.1906 110.167C61.124 110.113 61.1296 109.969 61.1906 109.837C61.2202 109.784 61.2623 109.741 61.3126 109.711Z" fill="#455A64"/>
<path d="M64.9514 107.44C65.1303 107.314 65.3438 107.259 65.556 107.284C65.564 107.222 65.5839 107.162 65.6145 107.108C65.645 107.054 65.6855 107.008 65.7335 106.972C65.8333 106.912 65.911 106.972 65.9054 107.098V107.602C65.8992 107.666 65.8802 107.728 65.8495 107.784C65.8189 107.84 65.7774 107.888 65.7279 107.925L65.3341 108.195C65.2398 108.255 65.1566 108.195 65.1566 108.093C65.1561 108.034 65.1678 107.975 65.1908 107.921C65.2138 107.867 65.2476 107.819 65.2897 107.781C65.1738 107.786 65.0611 107.823 64.9625 107.889C64.7398 108.044 64.5548 108.255 64.4226 108.503C64.2904 108.751 64.215 109.03 64.2025 109.316C64.2025 109.837 64.5464 110.047 64.968 109.783C65.2791 109.568 65.5152 109.248 65.6392 108.872C65.6674 108.782 65.7244 108.705 65.8 108.656C65.827 108.646 65.8563 108.646 65.8832 108.656C65.972 108.656 66.0053 108.776 65.9609 108.92C65.7757 109.475 65.4268 109.949 64.968 110.268C64.3468 110.652 63.8586 110.34 63.8586 109.567C63.8715 109.144 63.9774 108.731 64.1674 108.361C64.3574 107.991 64.6261 107.675 64.9514 107.44Z" fill="#455A64"/>
<g opacity="0.7">
<path opacity="0.7" d="M56.3427 112.81C56.3618 112.8 56.3826 112.795 56.4037 112.795C56.4248 112.795 56.4456 112.8 56.4647 112.81C56.5424 112.852 56.5479 112.989 56.4647 113.121L55.91 114.284L57.8791 113.055C57.979 112.989 58.0622 113.055 58.0622 113.169C58.0582 113.237 58.0395 113.302 58.0077 113.361C57.9759 113.419 57.9319 113.468 57.8791 113.505L55.91 114.733L56.498 115.165C56.5701 115.213 56.5645 115.357 56.498 115.488C56.4676 115.544 56.4259 115.591 56.3759 115.626C56.3564 115.641 56.3332 115.649 56.3094 115.649C56.2856 115.649 56.2624 115.641 56.2428 115.626L55.3498 114.961C55.334 114.948 55.3208 114.932 55.311 114.913C55.3079 114.887 55.3079 114.861 55.311 114.835C55.3083 114.809 55.3083 114.783 55.311 114.757C55.3177 114.724 55.3289 114.691 55.3442 114.661L56.2095 112.941C56.242 112.885 56.2881 112.84 56.3427 112.81Z" fill="white"/>
<path opacity="0.7" d="M61.3126 109.711C61.3327 109.695 61.357 109.686 61.382 109.686C61.4069 109.686 61.4312 109.695 61.4513 109.711L62.3166 110.34L62.3554 110.388C62.3581 110.414 62.3581 110.44 62.3554 110.466C62.3578 110.494 62.3578 110.522 62.3554 110.55L62.3222 110.64L61.4569 112.36C61.426 112.424 61.3801 112.478 61.3237 112.516C61.3042 112.527 61.2822 112.533 61.2599 112.533C61.2377 112.533 61.2157 112.527 61.1962 112.516C61.124 112.48 61.1185 112.336 61.1962 112.204L61.7841 111.042L59.815 112.27C59.7152 112.336 59.632 112.27 59.632 112.162C59.6342 112.094 59.652 112.026 59.684 111.967C59.7159 111.907 59.7609 111.857 59.815 111.821L61.7841 110.592L61.1906 110.167C61.124 110.113 61.1296 109.969 61.1906 109.837C61.2202 109.784 61.2623 109.741 61.3126 109.711Z" fill="white"/>
<path opacity="0.7" d="M64.9514 107.44C65.1303 107.314 65.3438 107.259 65.556 107.284C65.564 107.222 65.5839 107.162 65.6145 107.108C65.645 107.054 65.6855 107.008 65.7335 106.972C65.8333 106.912 65.911 106.972 65.9054 107.098V107.602C65.8992 107.666 65.8802 107.728 65.8495 107.784C65.8189 107.84 65.7774 107.888 65.7279 107.925L65.3341 108.195C65.2398 108.255 65.1566 108.195 65.1566 108.093C65.1561 108.034 65.1678 107.975 65.1908 107.921C65.2138 107.867 65.2476 107.819 65.2897 107.781C65.1738 107.786 65.0611 107.823 64.9625 107.889C64.7398 108.044 64.5548 108.255 64.4226 108.503C64.2904 108.751 64.215 109.03 64.2025 109.316C64.2025 109.837 64.5464 110.047 64.968 109.783C65.2791 109.568 65.5152 109.248 65.6392 108.872C65.6674 108.782 65.7244 108.705 65.8 108.656C65.827 108.646 65.8563 108.646 65.8832 108.656C65.972 108.656 66.0053 108.776 65.9609 108.92C65.7757 109.475 65.4268 109.949 64.968 110.268C64.3468 110.652 63.8586 110.34 63.8586 109.567C63.8715 109.144 63.9774 108.731 64.1674 108.361C64.3574 107.991 64.6261 107.675 64.9514 107.44Z" fill="white"/>
</g>
<path d="M166.702 34.5097C166.702 33.2032 166.269 32.2802 165.593 31.8427H165.565C164.86 31.4172 163.901 31.4831 162.83 32.1484L55.0891 99.1393C53.96 99.929 53.0196 100.996 52.3448 102.253C51.6701 103.51 51.2799 104.922 51.2064 106.373V111.803L166.713 39.7956L166.702 34.5097Z" fill="#455A64"/>
<path opacity="0.3" d="M166.702 34.5097C166.702 33.2032 166.269 32.2802 165.593 31.8427H165.565C164.86 31.4172 163.901 31.4831 162.83 32.1484L55.0891 99.1393C53.96 99.929 53.0196 100.996 52.3448 102.253C51.6701 103.51 51.2799 104.922 51.2064 106.373V111.803L166.713 39.7956L166.702 34.5097Z" fill="black"/>
<g opacity="0.5">
<path opacity="0.5" d="M56.3538 102.933C56.9085 102.567 57.4133 102.861 57.4133 103.586C57.3951 103.982 57.2901 104.367 57.1068 104.709C56.9235 105.052 56.6673 105.343 56.3594 105.558C55.777 105.923 55.2999 105.63 55.2999 104.905C55.319 104.509 55.4244 104.125 55.6076 103.782C55.7908 103.439 56.0465 103.148 56.3538 102.933Z" fill="white"/>
<path opacity="0.5" d="M59.2437 101.129C59.8261 100.769 60.3032 101.057 60.3032 101.782C60.2832 102.178 60.1775 102.563 59.9944 102.907C59.8113 103.25 59.5561 103.543 59.2493 103.76C58.6946 104.119 58.1898 103.832 58.1898 103.107C58.2075 102.71 58.3124 102.324 58.4956 101.98C58.6789 101.636 58.9353 101.344 59.2437 101.129Z" fill="white"/>
<path opacity="0.5" d="M62.1335 99.331C62.6882 98.9654 63.1874 99.2591 63.193 99.9842C63.1726 100.379 63.0667 100.763 62.8836 101.106C62.7005 101.448 62.4455 101.74 62.1391 101.956C61.5511 102.322 61.0796 102.028 61.0741 101.303C61.0942 100.907 61.2006 100.522 61.3848 100.179C61.5689 99.8368 61.8255 99.546 62.1335 99.331Z" fill="white"/>
</g>
<path d="M56.3538 102.933C56.9085 102.567 57.4133 102.861 57.4133 103.586C57.3951 103.982 57.2901 104.367 57.1068 104.71C56.9235 105.052 56.6673 105.343 56.3594 105.558C55.777 105.923 55.2999 105.63 55.2999 104.905C55.319 104.509 55.4244 104.125 55.6076 103.782C55.7908 103.439 56.0465 103.148 56.3538 102.933Z" fill="#455A64"/>
<path d="M59.2437 101.129C59.8261 100.769 60.3032 101.057 60.3032 101.782C60.2832 102.178 60.1775 102.563 59.9944 102.907C59.8113 103.25 59.5561 103.543 59.2493 103.76C58.6946 104.119 58.1898 103.832 58.1898 103.107C58.2075 102.71 58.3124 102.324 58.4956 101.98C58.6789 101.636 58.9353 101.344 59.2437 101.129Z" fill="#455A64"/>
<path d="M62.1335 99.331C62.6882 98.9654 63.1874 99.2591 63.193 99.9842C63.1726 100.379 63.0667 100.763 62.8836 101.106C62.7005 101.448 62.4455 101.74 62.1391 101.956C61.5511 102.322 61.0796 102.028 61.0741 101.303C61.0942 100.907 61.2006 100.522 61.3848 100.179C61.5689 99.8368 61.8255 99.546 62.1335 99.331Z" fill="#455A64"/>
<path d="M161.266 88.9329L161.199 57.0197C161.199 56.8094 161.148 56.6028 161.05 56.4208C160.953 56.2387 160.813 56.0876 160.644 55.9825C160.476 55.8775 160.284 55.8222 160.09 55.8223C159.895 55.8223 159.704 55.8777 159.535 55.9828L114.49 84.0126C114.068 84.2756 113.718 84.6539 113.475 85.1094C113.231 85.5649 113.103 86.0816 113.103 86.6076V118.557C113.103 118.767 113.155 118.974 113.252 119.156C113.35 119.338 113.49 119.489 113.658 119.594C113.827 119.699 114.018 119.754 114.213 119.754C114.407 119.754 114.599 119.699 114.767 119.594L159.879 91.522C160.3 91.2595 160.65 90.8821 160.893 90.4278C161.136 89.9734 161.265 89.4579 161.266 88.9329Z" fill="#37474F"/>
<path d="M108.366 87.8243L58.1898 119.042C57.7665 119.306 57.4154 119.687 57.1719 120.144C56.9284 120.602 56.8011 121.121 56.8031 121.649L56.8696 153.557C56.8698 153.767 56.9212 153.973 57.0187 154.156C57.1161 154.338 57.2562 154.489 57.4248 154.594C57.5934 154.699 57.7846 154.754 57.9793 154.754C58.1739 154.754 58.3651 154.699 58.5337 154.593L108.638 123.429C109.061 123.167 109.412 122.789 109.656 122.334C109.901 121.878 110.03 121.361 110.03 120.834V88.8611C110.03 88.6508 109.979 88.4442 109.881 88.2622C109.784 88.0802 109.644 87.929 109.475 87.824C109.306 87.7189 109.115 87.6636 108.921 87.6637C108.726 87.6638 108.535 87.7191 108.366 87.8243Z" fill="#37474F"/>
<path opacity="0.1" d="M108.366 87.8243L58.1898 119.042C57.7665 119.306 57.4154 119.687 57.1719 120.144C56.9284 120.602 56.8011 121.121 56.8031 121.649L56.8696 153.557C56.8698 153.767 56.9212 153.973 57.0187 154.156C57.1161 154.338 57.2562 154.489 57.4248 154.594C57.5934 154.699 57.7846 154.754 57.9793 154.754C58.1739 154.754 58.3651 154.699 58.5337 154.593L108.638 123.429C109.061 123.167 109.412 122.789 109.656 122.334C109.901 121.878 110.03 121.361 110.03 120.834V88.8611C110.03 88.6508 109.979 88.4442 109.881 88.2622C109.784 88.0802 109.644 87.929 109.475 87.824C109.306 87.7189 109.115 87.6636 108.921 87.6637C108.726 87.6638 108.535 87.7191 108.366 87.8243Z" fill="white"/>
<path d="M113.103 124.598V157.452C113.102 157.663 113.153 157.87 113.25 158.053C113.347 158.236 113.487 158.388 113.656 158.494C113.825 158.6 114.016 158.655 114.211 158.656C114.407 158.656 114.598 158.6 114.767 158.495L160.251 130.19C160.822 129.666 161.213 128.951 161.36 128.158L161.294 96.6881C161.294 96.4778 161.242 96.2713 161.145 96.0892C161.047 95.9072 160.907 95.756 160.739 95.651C160.57 95.5459 160.379 95.4907 160.184 95.4907C159.989 95.4908 159.798 95.5462 159.63 95.6513L113.103 124.598Z" fill="#37474F"/>
<path opacity="0.1" d="M113.103 124.598V157.452C113.102 157.663 113.153 157.87 113.25 158.053C113.347 158.236 113.487 158.388 113.656 158.494C113.825 158.6 114.016 158.655 114.211 158.656C114.407 158.656 114.598 158.6 114.767 158.495L160.251 130.19C160.822 129.666 161.213 128.951 161.36 128.158L161.294 96.6881C161.294 96.4778 161.242 96.2713 161.145 96.0892C161.047 95.9072 160.907 95.756 160.739 95.651C160.57 95.5459 160.379 95.4907 160.184 95.4907C159.989 95.4908 159.798 95.5462 159.63 95.6513L113.103 124.598Z" fill="white"/>
<path d="M56.8863 161.312L56.9473 192.398C56.9485 192.608 57.0006 192.814 57.0984 192.995C57.1963 193.176 57.3364 193.326 57.5049 193.431C57.6733 193.535 57.8642 193.59 58.0584 193.589C58.2525 193.589 58.4432 193.534 58.6114 193.429L108.638 162.307C109.061 162.044 109.413 161.665 109.658 161.208C109.902 160.752 110.031 160.233 110.03 159.706V128.583C110.031 128.373 109.98 128.165 109.883 127.982C109.786 127.8 109.646 127.648 109.477 127.542C109.309 127.436 109.117 127.38 108.922 127.38C108.727 127.38 108.535 127.435 108.366 127.541L58.273 158.705C57.8498 158.969 57.4986 159.349 57.2551 159.807C57.0116 160.265 56.8844 160.784 56.8863 161.312Z" fill="#37474F"/>
<path d="M79.2288 126.642L73.8651 131.005C72.3499 132.237 71.096 133.805 70.1872 135.603C69.2784 137.402 68.7358 139.389 68.5956 141.433L68.1019 148.624L97.622 130.255L96.019 127.69C95.2064 126.389 94.0486 125.382 92.6975 124.804C91.3464 124.225 89.865 124.101 88.4476 124.448L85.4301 125.191L79.2288 126.642Z" fill="white"/>
<path d="M75.9895 118.149C76.1541 117.72 76.4605 117.372 76.8492 117.172C76.9315 117.126 77.0192 117.092 77.1099 117.071C77.3701 117.024 77.637 117.046 77.8874 117.136C78.1378 117.226 78.364 117.38 78.5465 117.586C78.9057 118.006 79.1479 118.528 79.2454 119.09C79.3389 119.651 79.3964 120.217 79.4174 120.786C79.4944 121.795 79.639 122.797 79.85 123.783C79.9609 124.318 80.1781 124.821 80.4864 125.256C80.7948 125.692 81.1871 126.05 81.6361 126.306L81.6971 126.342C83.0006 127.041 84.4212 127.449 85.8739 127.541V129.255C87.0221 130.945 87.3438 134.181 84.3097 133.216C81.2756 132.251 79.3175 130.07 79.3175 127.924C79.3175 127.019 79.2732 125.856 79.2565 124.82C79.2288 123.417 79.2011 122.249 79.2011 122.249C78.9145 122.592 78.5182 122.807 78.0917 122.848C77.8995 122.89 77.7015 122.89 77.5093 122.848C77.2304 122.752 76.9723 122.597 76.7503 122.391C76.5282 122.185 76.3468 121.933 76.2169 121.649C75.9602 121.089 75.8183 120.476 75.8009 119.851C75.7389 119.276 75.8035 118.693 75.9895 118.149Z" fill="#8C5C5B"/>
<path d="M76.9712 112.228C77.5837 111.468 78.4358 110.981 79.3619 110.862L91.82 112.108C93.2567 115.405 92.114 117.574 92.114 117.574C92.3082 122.596 92.469 125.785 90.4222 126.839C88.98 127.463 87.4188 127.698 85.8739 127.523C84.4212 127.431 83.0006 127.023 81.6971 126.324L81.6306 126.288C81.1817 126.029 80.7897 125.669 80.4815 125.231C80.1733 124.794 79.956 124.289 79.8445 123.753C79.6356 122.777 79.4929 121.785 79.4174 120.786C79.3964 120.217 79.3389 119.651 79.2454 119.09C79.1479 118.528 78.9057 118.007 78.5465 117.586C78.364 117.38 78.1378 117.226 77.8874 117.136C77.637 117.046 77.3701 117.024 77.1099 117.071C77.0192 117.092 76.9315 117.126 76.8492 117.173C76.4942 114.961 76.3944 113.013 76.9712 112.228Z" fill="#263238"/>
<path d="M81.5363 112.612C81.7519 113.548 81.6958 114.534 81.3755 115.435C81.0486 116.325 80.7835 117.24 80.5823 118.173C80.4183 119.11 80.5389 120.079 80.9262 120.936C81.1203 121.362 81.3989 121.736 81.7421 122.033C82.0853 122.329 82.4847 122.54 82.9119 122.65C84.2487 122.956 85.5578 122.117 86.9001 121.835C88.1887 121.587 89.5169 121.84 90.6497 122.548C90.7453 122.61 90.854 122.645 90.9653 122.648C91.0767 122.652 91.187 122.624 91.2857 122.568C91.3843 122.512 91.4679 122.429 91.5285 122.328C91.5891 122.227 91.6246 122.111 91.6315 121.991C91.7924 119.102 91.7868 114.578 91.393 112.45L81.5363 112.612Z" fill="#8C5C5B"/>
<path d="M91.1822 109.999L92.7297 108.836C92.8914 109.396 92.9218 109.99 92.8182 110.565C92.7146 111.141 92.4803 111.679 92.1362 112.132C91.4288 113.021 90.4693 113.632 89.4072 113.87C88.3506 114.102 87.2671 114.154 86.1956 114.026C84.6254 113.889 83.0719 113.582 81.5585 113.109C80.8745 112.957 80.2441 112.6 79.7391 112.078C79.4241 111.644 79.2447 111.113 79.2268 110.562C79.2088 110.01 79.3533 109.467 79.6393 109.01C79.9375 108.562 80.32 108.188 80.7617 107.911C81.2033 107.634 81.6941 107.461 82.2019 107.404C83.2364 107.315 84.2773 107.404 85.2859 107.667C86.2945 107.932 87.3368 108.013 88.3699 107.907C88.8883 107.849 89.3857 107.654 89.8187 107.341C90.2518 107.028 90.6075 106.605 90.8549 106.109C91.7313 107.661 91.1822 109.999 91.1822 109.999Z" fill="#263238"/>
<path d="M80.8596 126.234C80.5128 125.753 80.2651 125.197 80.133 124.604C80.4561 125.323 80.9825 125.913 81.6362 126.288L81.6972 126.324C83.0006 127.023 84.4212 127.431 85.8739 127.523V128.679C85.0248 128.613 84.1864 128.434 83.3779 128.146C82.3884 127.778 81.5153 127.115 80.8596 126.234Z" fill="#7D4B4A"/>
<path d="M135.634 130.417L130.087 134.948C129.11 135.737 128.305 136.75 127.73 137.913C127.155 139.076 126.823 140.361 126.759 141.678L126.31 151.309L153.395 134.457L149.424 130.231C148.694 129.457 147.796 128.893 146.813 128.592C145.829 128.29 144.791 128.26 143.794 128.505L141.836 128.985L135.634 130.417Z" fill="#8AB9F6"/>
<path opacity="0.2" d="M135.634 130.417L130.087 134.948C129.11 135.737 128.305 136.75 127.73 137.913C127.155 139.076 126.823 140.361 126.759 141.678L126.31 151.309L153.395 134.457L149.424 130.231C148.694 129.457 147.796 128.893 146.813 128.592C145.829 128.29 144.791 128.26 143.794 128.505L141.836 128.985L135.634 130.417Z" fill="black"/>
<path d="M147.166 123.058C148.11 122.324 148.767 121.236 149.007 120.006C149.247 118.777 149.053 117.495 148.464 116.411C148.994 116.157 149.429 115.715 149.695 115.159C149.808 114.89 149.842 114.592 149.795 114.302C149.748 114.012 149.62 113.744 149.43 113.534C149.239 113.323 148.994 113.18 148.727 113.122C148.459 113.065 148.182 113.096 147.932 113.211C148.071 112.777 148.072 112.305 147.934 111.871C147.796 111.436 147.528 111.064 147.172 110.814C146.81 110.604 146.393 110.533 145.99 110.614C145.587 110.695 145.221 110.922 144.953 111.257C144.963 110.975 144.887 110.697 144.738 110.464C144.589 110.232 144.375 110.058 144.126 109.969C143.614 109.823 143.071 109.858 142.579 110.071C142.08 110.256 141.608 110.526 141.109 110.67C140.246 110.906 139.359 111.029 138.469 111.036C137.574 111.046 136.697 111.3 135.917 111.773C135.174 112.294 134.514 113.511 134.919 114.565C134.79 114.391 134.63 114.248 134.447 114.145C134.265 114.042 134.065 113.981 133.859 113.966C133.652 113.958 133.445 113.998 133.253 114.085C133.061 114.172 132.89 114.303 132.75 114.47C133.305 114.841 133.859 115.237 134.414 115.608C134.096 115.513 133.758 115.533 133.451 115.665C133.145 115.797 132.887 116.034 132.717 116.339C132.457 116.944 132.356 117.613 132.423 118.275C132.494 120.792 132.907 123.284 133.649 125.671C134.026 126.905 134.575 128.212 135.656 128.781L147.166 123.058Z" fill="#263238"/>
<path d="M141.286 128.997L141.042 131.945C141.03 132.173 141.084 132.4 141.198 132.593C141.349 132.902 141.406 133.254 141.363 133.6C141.319 133.946 141.176 134.269 140.954 134.522C140.602 134.805 140.177 134.96 139.739 134.966C138.907 135.014 138.074 134.872 137.296 134.549C136.518 134.225 135.812 133.728 135.224 133.09C135.105 132.955 135.013 132.796 134.952 132.622C134.891 132.448 134.863 132.263 134.869 132.077L135.046 124.598L141.286 128.997Z" fill="#FFA8A7"/>
<path d="M135.595 124.988L141.286 128.997L141.07 131.61C139.737 131.363 138.472 130.793 137.37 129.944C136.71 129.348 136.2 128.581 135.889 127.714C135.579 126.847 135.478 125.909 135.595 124.988Z" fill="#F28F8F"/>
<path d="M147.488 116.981C147.905 120.401 147.697 123.877 146.878 127.211C146.717 127.944 146.463 128.65 146.123 129.309C145.779 129.97 145.24 130.489 144.592 130.783C143.76 131.026 142.884 131.026 142.052 130.783C140.504 130.489 138.923 130.184 137.581 129.303C136.239 128.422 135.174 126.839 135.301 125.149C134.92 125.404 134.486 125.552 134.038 125.58C133.591 125.607 133.144 125.512 132.739 125.305C132.343 125.07 132.008 124.732 131.763 124.322C131.518 123.912 131.371 123.442 131.335 122.956C131.283 122.484 131.384 122.008 131.622 121.608C131.86 121.209 132.22 120.912 132.639 120.768C132.905 120.727 133.175 120.748 133.433 120.829C133.69 120.911 133.928 121.052 134.131 121.242C134.536 121.622 134.888 122.064 135.174 122.554C135.307 122.791 135.485 122.995 135.695 123.154C135.8 123.233 135.925 123.275 136.053 123.275C136.181 123.275 136.306 123.233 136.411 123.154C136.5 123.037 136.564 122.902 136.6 122.756C136.635 122.61 136.641 122.457 136.616 122.309L136.527 120.169C136.52 120.005 136.558 119.841 136.636 119.7C136.714 119.558 136.828 119.444 136.965 119.372C137.374 119.131 137.689 118.74 137.853 118.269C137.994 117.855 138.078 117.421 138.103 116.981C138.108 116.898 138.132 116.819 138.172 116.748C138.211 116.678 138.266 116.618 138.33 116.575C138.395 116.531 138.469 116.504 138.545 116.497C138.621 116.489 138.697 116.501 138.768 116.531C141.565 117.636 144.607 117.793 147.488 116.981Z" fill="#FFA8A7"/>
<path d="M95.2203 154.192C94.9817 154.791 94.3272 155.079 94.0111 155.636C93.8881 155.852 93.8217 156.1 93.8191 156.353C93.8165 156.607 93.8778 156.856 93.9964 157.074C94.1149 157.293 94.2863 157.473 94.4921 157.594C94.6979 157.716 94.9305 157.774 95.1648 157.764C95.3974 157.75 95.6225 157.671 95.8173 157.533C96.0122 157.395 96.1698 157.204 96.2741 156.979C96.374 157.507 96.374 158.051 96.2741 158.579C96.2299 158.849 96.1212 159.101 95.9587 159.311C95.7962 159.522 95.5856 159.682 95.3478 159.777C95.6926 160.163 95.9292 160.646 96.0301 161.171C96.131 161.696 96.092 162.241 95.9178 162.743C95.7436 163.245 95.4413 163.683 95.0459 164.007C94.6504 164.33 94.1781 164.526 93.6838 164.572C93.8724 166.028 92.996 167.604 91.8811 168.455C90.7338 169.266 89.3592 169.614 87.9983 169.438C86.6413 169.256 85.3206 168.837 84.0878 168.198C82.1947 168.976 80.1682 169.303 78.1472 169.157C76.8659 169.025 75.5291 168.653 74.6416 167.646C73.7541 166.64 73.5323 164.848 74.4919 163.907C74.1879 164.104 73.8399 164.209 73.4851 164.209C73.1304 164.209 72.7823 164.104 72.4784 163.907C72.1796 163.735 71.9345 163.471 71.7742 163.149C71.6139 162.827 71.5454 162.461 71.5775 162.097C71.6095 161.733 71.7406 161.387 71.9542 161.103C72.1679 160.82 72.4545 160.611 72.7779 160.503C72.553 160.347 72.3707 160.13 72.2498 159.873C72.1289 159.616 72.0737 159.328 72.0901 159.04C72.1323 158.765 72.2436 158.508 72.4118 158.297C72.5801 158.085 72.7988 157.928 73.0441 157.842C72.9768 158.078 72.9723 158.331 73.0312 158.57C73.09 158.81 73.2098 159.027 73.377 159.196C73.5553 159.34 73.7698 159.423 73.9924 159.434C74.215 159.445 74.4354 159.383 74.625 159.256C74.8011 159.121 74.9493 158.948 75.0601 158.748C75.1709 158.548 75.2418 158.325 75.2684 158.093C75.321 157.63 75.321 157.161 75.2684 156.697C75.0633 155.097 75.2096 153.466 75.6955 151.938C75.9438 151.176 76.3664 150.494 76.924 149.956C77.4816 149.417 78.1561 149.039 78.8849 148.858C79.4474 146.983 80.6366 145.402 82.2202 144.423C83.8038 143.445 85.6682 143.139 87.4492 143.566C88.9302 143.92 90.3668 144.873 90.9603 146.377C91.5985 146.233 92.2502 146.173 92.9017 146.197C93.5446 146.187 94.1678 146.437 94.6489 146.898C94.8824 147.134 95.044 147.441 95.1123 147.778C95.1807 148.115 95.1526 148.467 95.0317 148.786C94.8375 149.218 94.4271 149.607 94.5214 150.075C94.6157 150.542 95.0317 150.674 95.2369 151.022C95.3214 151.194 95.3656 151.387 95.3656 151.582C95.3656 151.777 95.3214 151.97 95.2369 152.142C95.0736 152.489 94.8643 152.808 94.6157 153.089C94.3993 153.359 94.1664 153.688 94.2884 154.042C94.4104 154.396 95.0261 154.516 95.2203 154.192Z" fill="#263238"/>
<path d="M89.4793 170.511C88.9702 170.892 88.3546 171.07 87.7376 171.015C86.2263 171.012 84.736 170.632 83.3831 169.905C82.0302 169.177 80.8514 168.121 79.9388 166.819L81.6694 166.658V160.652L87.6932 163.164V166.64H89.2352C89.5538 167.062 89.8032 167.541 89.9729 168.054C90.123 168.471 90.1562 168.926 90.0684 169.363C89.9806 169.8 89.7757 170.199 89.4793 170.511Z" fill="#F28F8F"/>
<path d="M82.1132 160.826C83.9159 164.614 85.0364 164.692 87.7099 165.021V163.152L82.1132 160.826Z" fill="#D96E6E"/>
<path d="M93.0293 152.082C93.5513 154.936 93.5833 157.87 93.1236 160.736C92.9461 161.809 92.6576 162.954 91.87 163.637C90.8993 164.482 89.507 164.356 88.2701 164.188C86.9126 164.071 85.5773 163.746 84.3041 163.223C83.6711 162.956 83.0971 162.548 82.6193 162.025C82.1416 161.503 81.7707 160.878 81.5307 160.191C81.19 160.39 80.7978 160.462 80.4155 160.394C80.0331 160.327 79.6821 160.125 79.4174 159.819C78.9012 159.187 78.6241 158.367 78.6409 157.524C78.5989 157.147 78.6472 156.766 78.7813 156.415C78.9153 156.064 79.1306 155.757 79.4063 155.522C79.6174 155.4 79.8513 155.332 80.0905 155.321C80.3297 155.311 80.568 155.359 80.7875 155.462C81.2275 155.669 81.6211 155.975 81.9412 156.361C82.0993 156.561 82.2867 156.731 82.4959 156.865C82.5997 156.932 82.7186 156.968 82.8398 156.968C82.961 156.968 83.0799 156.932 83.1837 156.865C83.2917 156.753 83.3744 156.616 83.4254 156.464C83.4764 156.313 83.4943 156.15 83.4777 155.99C83.4566 154.667 83.7346 153.359 84.2875 152.178C84.9087 151.046 86.1623 150.224 87.3382 150.566C87.8458 150.816 88.378 151.003 88.9246 151.123C89.3714 151.098 89.804 150.945 90.1782 150.68C90.4386 150.49 90.74 150.375 91.0533 150.346C91.3666 150.318 91.6814 150.377 91.9676 150.518C92.2537 150.658 92.5016 150.876 92.6875 151.15C92.8734 151.424 92.9911 151.745 93.0293 152.082Z" fill="#F28F8F"/>
<path d="M89.2297 155.63L90.8327 158.543L88.9246 158.926L89.2297 155.63Z" fill="#F28F8F"/>
<path d="M87.0831 159.909L88.5364 160.67C88.4106 160.849 88.2341 160.979 88.0338 161.04C87.8336 161.1 87.6205 161.088 87.427 161.006C87.2617 160.894 87.1372 160.724 87.0745 160.524C87.0119 160.324 87.0149 160.107 87.0831 159.909Z" fill="#F28F8F"/>
<path d="M90.7495 166.64L91.2321 173.136L95.309 170.595C94.4714 168.24 93.1124 166.64 90.7495 166.64Z" fill="#F28F8F"/>
<path d="M90.7495 166.64H89.2519C89.5704 167.062 89.8199 167.541 89.9896 168.054C90.1397 168.471 90.1729 168.926 90.0851 169.363C89.9973 169.8 89.7924 170.199 89.496 170.511C88.9869 170.892 88.3713 171.07 87.7543 171.015C86.243 171.012 84.7527 170.632 83.3998 169.905C82.0469 169.177 80.8681 168.121 79.9555 166.819L74.808 167.299C74.808 167.299 74.9245 179.021 74.8968 180.711C74.8706 181.537 74.9282 182.363 75.0687 183.175L94.122 171.32C93.2602 169.559 92.1187 167.974 90.7495 166.64Z" fill="#BA68C8"/>
<path opacity="0.6" d="M90.7495 166.64H89.2519C89.5704 167.062 89.8199 167.541 89.9896 168.054C90.1397 168.471 90.1729 168.926 90.0851 169.363C89.9973 169.8 89.7924 170.199 89.496 170.511C88.9869 170.892 88.3713 171.07 87.7543 171.015C86.243 171.012 84.7527 170.632 83.3998 169.905C82.0469 169.177 80.8681 168.121 79.9555 166.819L74.808 167.299C74.808 167.299 74.9245 179.021 74.8968 180.711C74.8706 181.537 74.9282 182.363 75.0687 183.175L94.122 171.32C93.2602 169.559 92.1187 167.974 90.7495 166.64Z" fill="white"/>
<path d="M74.808 167.317C69.8713 169.115 71.025 173.663 73.5433 178.53C74.1701 179.729 74.9244 181.239 75.7065 182.797L81.0204 179.489C79.1123 174.437 76.4942 168.24 74.808 167.317Z" fill="#F28F8F"/>
<path d="M145.419 95.927C146.047 97.0768 146.589 98.2793 147.038 99.5229L149.013 98.3242L147.21 94.5246C146.877 93.8214 146.338 93.2565 145.677 92.9175C145.016 92.5784 144.27 92.4839 143.555 92.6488L142.928 92.7926C143.915 93.6793 144.757 94.7389 145.419 95.927Z" fill="#455A64"/>
<path d="M131.879 102.13C131.749 101.763 131.55 101.43 131.296 101.151C131.041 100.871 130.735 100.652 130.398 100.506C130.031 100.392 129.645 100.369 129.269 100.439C128.892 100.508 128.535 100.668 128.224 100.907C127.981 101.08 127.756 101.281 127.553 101.507C126.741 102.926 126.311 104.561 126.31 106.229V112.414L132.816 108.369L132.351 104.407C132.289 103.629 132.131 102.862 131.879 102.13Z" fill="#455A64"/>
<path d="M145.419 95.9269C144.759 94.7303 143.917 93.6625 142.928 92.7686L138.602 93.7754L134.164 95.7591L130.01 98.7557C129.009 99.4709 128.164 100.414 127.536 101.518C127.739 101.293 127.964 101.092 128.207 100.919C128.518 100.68 128.876 100.52 129.252 100.451C129.628 100.381 130.014 100.404 130.381 100.518C130.719 100.663 131.024 100.883 131.279 101.163C131.534 101.442 131.732 101.775 131.862 102.142C132.115 102.876 132.273 103.644 132.334 104.425L132.8 108.387L147.022 99.5348C146.578 98.2876 146.042 97.0811 145.419 95.9269Z" fill="#455A64"/>
<path opacity="0.3" d="M145.419 95.927C146.047 97.0768 146.589 98.2793 147.038 99.5229L149.013 98.3242L147.21 94.5246C146.877 93.8214 146.338 93.2565 145.677 92.9175C145.016 92.5784 144.27 92.4839 143.555 92.6488L142.928 92.7926C143.915 93.6793 144.757 94.7389 145.419 95.927Z" fill="white"/>
<path opacity="0.3" d="M131.879 102.13C131.749 101.763 131.55 101.43 131.296 101.151C131.041 100.871 130.735 100.652 130.398 100.506C130.031 100.392 129.645 100.369 129.269 100.439C128.892 100.508 128.535 100.668 128.224 100.907C127.981 101.08 127.756 101.281 127.553 101.507C126.741 102.926 126.311 104.561 126.31 106.229V112.414L132.816 108.369L132.351 104.407C132.289 103.629 132.131 102.862 131.879 102.13Z" fill="white"/>
<path opacity="0.4" d="M145.419 95.9269C144.759 94.7303 143.917 93.6625 142.928 92.7686L138.602 93.7754L134.164 95.7591L130.01 98.7557C129.009 99.4709 128.164 100.414 127.536 101.518C127.739 101.293 127.964 101.092 128.207 100.919C128.518 100.68 128.876 100.52 129.252 100.451C129.628 100.381 130.014 100.404 130.381 100.518C130.719 100.663 131.024 100.883 131.279 101.163C131.534 101.442 131.732 101.775 131.862 102.142C132.115 102.876 132.273 103.644 132.334 104.425L132.8 108.387L147.022 99.5348C146.578 98.2876 146.042 97.0811 145.419 95.9269Z" fill="white"/>
<path d="M145.208 85.439C146.095 84.4683 146.646 83.1964 146.766 81.8382C146.886 80.48 146.569 79.1185 145.868 77.9836C146.241 77.8168 146.555 77.5271 146.766 77.1558C146.978 76.7844 147.075 76.3505 147.044 75.916C147.003 75.4814 146.835 75.0724 146.563 74.7488C146.292 74.4252 145.932 74.2042 145.535 74.118C144.858 74.0805 144.18 74.1843 143.538 74.4237C142.399 74.6454 141.233 74.6454 140.094 74.4237C138.951 74.2499 137.82 73.9802 136.672 73.8903C135.519 73.7573 134.355 73.9365 133.282 74.4117C132.749 74.6535 132.274 75.0247 131.894 75.4964C131.514 75.9682 131.239 76.528 131.091 77.1326C130.204 76.8749 129.15 77.4861 128.579 78.2653C128.041 79.0784 127.752 80.0527 127.752 81.052C127.719 82.0409 127.847 83.0298 127.891 84.0486C127.976 85.0409 127.859 86.0413 127.547 86.9792C127.131 88.046 126.31 88.921 126.049 90.0477C125.929 90.5675 125.936 91.1121 126.07 91.628C126.204 92.1439 126.46 92.6133 126.812 92.99C127.165 93.3668 127.602 93.6378 128.081 93.7766C128.56 93.9153 129.064 93.917 129.544 93.7814C129.349 93.0004 129.259 92.1929 129.278 91.3842C129.366 92.4749 130.387 93.3259 131.33 93.6915C132.306 93.9945 133.326 94.0922 134.336 93.9792L137.897 93.8293L142.052 93.6495C142.792 93.6714 143.529 93.535 144.221 93.248C144.796 92.909 145.278 92.4117 145.618 91.8065C145.958 91.2013 146.144 90.5098 146.157 89.802C146.134 88.2909 145.811 86.8028 145.208 85.439Z" fill="#263238"/>
<path d="M140.122 91.6898V95.7831C140.122 95.7831 143.222 97.9226 141.913 99.0553C139.456 101.189 134.181 95.7591 134.181 95.7591V88.9449L140.122 91.6898Z" fill="#FFA8A7"/>
<path d="M134.181 88.9449C135.096 91.8816 138.419 94.105 140.122 94.5485V91.6898L134.181 88.9449Z" fill="#F28F8F"/>
<path d="M134.891 84.2944C134.974 84.8026 134.996 85.3202 134.958 85.8346C134.909 86.2247 134.743 86.5868 134.486 86.8654C134.361 86.9974 134.209 87.0943 134.042 87.1475C133.874 87.2008 133.697 87.2089 133.526 87.1711C133.616 86.664 133.521 86.1394 133.263 85.7054C133.004 85.2715 132.601 84.9613 132.137 84.8391C131.673 84.7168 131.183 84.7917 130.769 85.0483C130.354 85.305 130.047 85.7237 129.91 86.2181C129.829 86.5763 129.822 86.9491 129.889 87.3105C129.956 87.6718 130.096 88.0129 130.298 88.3097C130.711 88.901 131.244 89.3809 131.857 89.7121C132.206 89.8368 132.585 89.8254 132.928 89.6798C133.27 89.5342 133.555 89.2636 133.732 88.915C135.545 91.3962 138.724 93.2541 141.658 92.9904C142.469 92.9391 143.25 92.6398 143.91 92.1273C145.019 91.1924 145.108 89.784 145.252 88.3877C145.461 86.6219 145.448 84.8337 145.214 83.0718C144.913 80.6095 143.812 78.3428 142.107 76.6771C141.092 81.957 136.627 83.9048 134.891 84.2944Z" fill="#FFA8A7"/>
<path d="M138.602 81.5435L137.398 82.5383C137.335 82.3749 137.321 82.1944 137.356 82.0216C137.392 81.8489 137.476 81.6923 137.598 81.5734C137.746 81.4674 137.918 81.4084 138.096 81.4031C138.273 81.3978 138.449 81.4464 138.602 81.5435Z" fill="#263238"/>
<path d="M178.739 85.445C178.959 85.0175 179.283 84.6631 179.676 84.4202L200.105 71.9006C201.214 71.2054 203.894 72.1463 203.894 74.1061V89.9758C203.894 90.4541 203.777 90.9239 203.555 91.3376C203.333 91.7513 203.013 92.0941 202.629 92.3311L193.116 98.1803L194.431 97.3713L193.604 99.8884C193.599 99.9064 193.591 99.9232 193.58 99.9376C193.568 99.952 193.555 99.9638 193.539 99.9722C193.523 99.9807 193.506 99.9856 193.489 99.9866C193.472 99.9876 193.454 99.9848 193.438 99.9783C193.294 99.8944 192.65 99.5228 192.279 99.2591L192.245 99.2232L192.046 98.8696L182.228 104.803C181.857 105.052 181.433 105.191 180.997 105.206C180.561 105.221 180.128 105.111 179.744 104.888C179.36 104.665 179.037 104.336 178.808 103.935C178.579 103.534 178.452 103.074 178.439 102.603V86.7935C178.429 86.3235 178.533 85.8589 178.739 85.445Z" fill="#5096F1"/>
<path opacity="0.2" d="M192.217 99.2351L192.251 99.271C192.622 99.5347 193.266 99.9063 193.41 99.9902C193.393 99.9871 193.377 99.9802 193.362 99.9699C193.348 99.9595 193.336 99.946 193.327 99.9303L192.533 98.5339L192.689 98.438L191.99 98.8695L192.217 99.2351Z" fill="white"/>
<path opacity="0.4" d="M181.235 86.9732C181.397 86.6222 181.626 86.3119 181.906 86.0623C182.002 85.9795 182.104 85.9054 182.211 85.8405L202.634 73.321C202.761 73.2422 202.906 73.201 203.052 73.2014C203.199 73.2019 203.343 73.2439 203.47 73.3235C203.597 73.403 203.703 73.5171 203.776 73.6544C203.849 73.7918 203.888 73.9475 203.888 74.1061C203.888 72.1463 201.225 71.2054 200.099 71.9006L179.676 84.3962C179.283 84.6392 178.959 84.9935 178.739 85.421L181.235 86.9732Z" fill="white"/>
<path opacity="0.2" d="M180.952 104.03V88.1898C180.946 88.082 180.946 87.974 180.952 87.8662C180.993 87.5544 181.083 87.2524 181.218 86.9732L178.722 85.4449C178.51 85.8489 178.397 86.305 178.395 86.7694V102.615C178.407 103.086 178.534 103.546 178.763 103.947C178.992 104.348 179.315 104.677 179.699 104.9C180.084 105.123 180.516 105.233 180.952 105.218C181.388 105.203 181.813 105.064 182.183 104.815C182.057 104.889 181.914 104.927 181.77 104.925C181.626 104.922 181.485 104.879 181.361 104.8C181.237 104.721 181.134 104.608 181.062 104.473C180.99 104.338 180.952 104.185 180.952 104.03Z" fill="white"/>
<path d="M192.794 85.5889L192.816 92.9304L191.141 93.9732L191.136 91.1085L188.85 92.5349L188.861 95.3996L187.192 96.4364L187.175 89.0948L188.839 88.058L188.85 90.8089L191.13 89.3885L191.124 86.6317L192.794 85.5889Z" fill="white"/>
<path d="M194.713 85.427C194.125 85.7926 193.731 85.5768 193.726 84.9775C193.75 84.6324 193.852 84.2989 194.023 84.0063C194.195 83.7138 194.43 83.4711 194.708 83.2995C195.296 82.9339 195.69 83.1197 195.69 83.719C195.672 84.0693 195.574 84.4093 195.403 84.7078C195.233 85.0063 194.996 85.2536 194.713 85.427Z" fill="white"/>
<path d="M193.926 92.2412L193.909 86.5597L195.518 85.5529L195.534 91.2343L193.926 92.2412Z" fill="white"/>
<path d="M197.958 87.0391L196.682 87.8422L196.355 83.3653L198.263 82.1787L197.958 87.0391Z" fill="white"/>
<path d="M197.32 88.0341C197.875 87.6745 198.28 87.8902 198.28 88.5135C198.262 88.8592 198.166 89.1949 198 89.4907C197.833 89.7866 197.602 90.0335 197.326 90.2095C196.771 90.5631 196.372 90.3114 196.366 89.7061C196.385 89.3639 196.482 89.0321 196.648 88.7403C196.815 88.4485 197.046 88.2058 197.32 88.0341Z" fill="white"/>
<path d="M197.836 152.478L201.525 160.221L198.197 166.316L201.924 172.687L207.554 163.247C207.929 162.606 208.172 161.885 208.268 161.134C208.364 160.382 208.309 159.617 208.109 158.89C207.149 155.209 205.925 151.615 204.448 148.139L197.836 152.478Z" fill="#FFA8A7"/>
<path opacity="0.2" d="M200.842 150.506L197.836 152.478L200.654 158.357L200.82 151.435C200.831 151.129 200.837 150.818 200.842 150.506Z" fill="black"/>
<path d="M194.869 137.513C199.14 136.656 201.58 138.196 205.191 148.63C203.716 152.226 197.464 153.521 197.464 153.521L194.869 137.513Z" fill="#8AB9F6"/>
<path opacity="0.2" d="M200.365 145.843C199.511 143.003 197.348 140.935 195.14 139.077L197.481 153.521C198.618 153.255 199.731 152.884 200.809 152.412C200.809 152.088 200.809 151.759 200.809 151.435C200.87 149.559 200.909 147.635 200.365 145.843Z" fill="black"/>
<path d="M188.307 246.869C187.957 247.66 186.848 248.392 185.639 248.607C184.414 248.721 183.18 248.636 181.978 248.356C180.168 248.081 178.335 248.031 176.514 248.206C175.387 248.366 174.251 248.452 173.114 248.463C171.969 248.478 170.849 248.096 169.919 247.373C169.277 246.827 168.849 246.039 168.721 245.167C168.665 245.736 168.746 246.31 168.956 246.835C169.166 247.36 169.498 247.818 169.919 248.164C170.85 248.886 171.968 249.27 173.114 249.261C174.251 249.244 175.387 249.156 176.514 248.997C178.335 248.825 180.168 248.875 181.978 249.147C183.193 249.332 184.513 249.704 185.722 249.488C186.931 249.273 188.04 248.541 188.39 247.75L188.307 246.869Z" fill="#263238"/>
<path d="M175.044 244.532C176.065 244.532 175.688 242.902 176.658 241.811C176.265 241.811 175.865 241.811 175.471 241.811C174.601 243.213 174.345 244.532 175.044 244.532Z" fill="white"/>
<path d="M177.163 244.448C178.189 244.448 177.918 242.506 178.927 241.374C178.694 241.457 178.461 241.529 178.228 241.589C178.028 241.637 177.823 241.673 177.624 241.703C176.725 243.082 176.464 244.448 177.163 244.448Z" fill="white"/>
<path d="M187.253 240.72C187.177 240.359 186.979 240.041 186.698 239.827L181.19 239.677C180.6 240.474 179.805 241.064 178.905 241.374C177.895 242.506 178.167 244.448 177.141 244.448C176.442 244.448 176.703 243.082 177.601 241.703C177.28 241.757 176.958 241.787 176.636 241.811C175.666 242.902 176.043 244.532 175.022 244.532C174.334 244.532 174.578 243.195 175.449 241.841H174.678C174.445 241.841 174.207 241.841 173.974 241.799C171.949 243.525 171.755 245.395 172.038 248.355C172.386 248.42 172.738 248.458 173.092 248.469C174.229 248.458 175.364 248.372 176.492 248.212C178.313 248.037 180.146 248.087 181.956 248.361C183.157 248.642 184.391 248.727 185.616 248.613C186.826 248.397 187.935 247.666 188.284 246.875L187.253 240.72Z" fill="#455A64"/>
<path d="M173.996 241.793C173.078 241.629 172.141 241.629 171.223 241.793C170.657 241.912 170.13 242.19 169.695 242.598C169.26 243.006 168.932 243.53 168.743 244.118C168.664 244.461 168.651 244.818 168.704 245.167C168.832 246.039 169.26 246.827 169.902 247.373C170.53 247.886 171.266 248.221 172.043 248.35C171.794 245.401 171.971 243.519 173.996 241.793Z" fill="white"/>
<path d="M181.057 237.981V240.846C181.057 241.164 181.174 241.469 181.382 241.694C181.59 241.918 181.872 242.045 182.166 242.045H184.94C185.404 242.045 185.85 241.85 186.184 241.501C186.517 241.152 186.711 240.676 186.726 240.175L186.792 237.999L181.057 237.981Z" fill="#FFA8A7"/>
<path d="M199.411 236.705C199.261 237.055 199.028 237.356 198.736 237.578C198.444 237.8 198.103 237.935 197.747 237.97C197.006 238.026 196.266 237.829 195.634 237.406C194.674 236.753 194.303 235.722 193.654 234.793C192.972 233.891 192.198 233.074 191.346 232.36C190.425 231.632 189.667 230.69 189.128 229.603C188.994 229.282 188.906 228.94 188.867 228.59C188.783 229.251 188.873 229.924 189.128 230.532C189.667 231.619 190.425 232.561 191.346 233.289C192.197 234.005 192.971 234.821 193.654 235.722C194.303 236.651 194.674 237.682 195.634 238.335C196.265 238.761 197.005 238.958 197.747 238.898C198.103 238.864 198.444 238.729 198.736 238.507C199.028 238.285 199.261 237.984 199.411 237.634C199.527 237.11 199.563 236.57 199.517 236.034C199.518 236.262 199.482 236.49 199.411 236.705Z" fill="#263238"/>
<path d="M193.155 230.412C193.058 230.554 193.011 230.728 193.021 230.904C193.038 230.987 193.074 231.065 193.127 231.129C193.179 231.193 193.246 231.241 193.321 231.269C193.43 231.299 193.544 231.299 193.652 231.269C193.761 231.238 193.861 231.179 193.942 231.095C194.101 230.927 194.244 230.742 194.369 230.544C194.739 230.039 195.23 229.653 195.789 229.429C196.062 229.319 196.348 229.251 196.638 229.226L195.945 228.548C195.511 228.573 195.086 228.685 194.691 228.878C194.045 229.206 193.508 229.742 193.155 230.412Z" fill="white"/>
<path d="M193.299 228.045C192.655 228.373 192.121 228.906 191.768 229.573C191.668 229.713 191.618 229.888 191.629 230.065C191.648 230.149 191.686 230.227 191.739 230.292C191.792 230.356 191.859 230.406 191.934 230.436C192.042 230.466 192.155 230.466 192.263 230.435C192.371 230.405 192.47 230.345 192.55 230.262C192.71 230.094 192.855 229.909 192.983 229.711C193.35 229.204 193.839 228.816 194.397 228.59C194.843 228.418 195.317 228.351 195.789 228.392L195.107 227.721C194.488 227.654 193.864 227.765 193.299 228.045Z" fill="white"/>
<path d="M194.674 227.302C194.048 226.641 193.315 226.111 192.511 225.738C192.026 225.508 191.491 225.427 190.967 225.506C190.442 225.584 189.947 225.818 189.538 226.181C189.264 226.498 189.062 226.88 188.949 227.296C188.835 227.712 188.813 228.151 188.883 228.578C188.923 228.928 189.01 229.27 189.144 229.591C189.321 230.013 189.551 230.406 189.826 230.76C190.087 228.231 192.151 227.032 194.674 227.302Z" fill="white"/>
<path d="M199.467 234.188C199.473 233.316 199.283 232.456 198.912 231.683L197.575 230.166L196.621 229.226C196.331 229.251 196.045 229.319 195.773 229.429C195.214 229.653 194.722 230.039 194.353 230.544C194.227 230.742 194.084 230.927 193.926 231.095C193.844 231.179 193.744 231.238 193.636 231.268C193.527 231.299 193.413 231.299 193.304 231.269C193.23 231.241 193.163 231.193 193.11 231.129C193.058 231.065 193.021 230.987 193.005 230.904C192.994 230.728 193.041 230.554 193.138 230.412C193.491 229.742 194.028 229.206 194.674 228.878C195.07 228.685 195.495 228.573 195.928 228.548L195.773 228.392C195.301 228.351 194.826 228.418 194.38 228.59C193.823 228.816 193.333 229.204 192.966 229.711C192.839 229.909 192.694 230.094 192.533 230.262C192.453 230.345 192.354 230.405 192.246 230.436C192.139 230.466 192.025 230.466 191.918 230.436C191.842 230.406 191.775 230.356 191.722 230.292C191.669 230.227 191.631 230.149 191.613 230.065C191.602 229.888 191.651 229.713 191.751 229.573C192.104 228.906 192.639 228.373 193.282 228.045C193.848 227.765 194.472 227.654 195.09 227.721L194.68 227.326C192.156 227.032 190.093 228.231 189.832 230.796C190.291 231.374 190.798 231.906 191.346 232.384C192.196 233.101 192.968 233.919 193.648 234.823C194.297 235.752 194.669 236.783 195.628 237.436C196.261 237.859 197 238.056 197.742 237.999C198.097 237.965 198.438 237.83 198.73 237.608C199.023 237.386 199.255 237.085 199.406 236.735C199.477 236.519 199.512 236.292 199.511 236.064C199.529 235.438 199.514 234.812 199.467 234.188Z" fill="#455A64"/>
<path d="M194.636 229.657L194.791 232.737C196.588 233.852 198.479 233.247 199.112 232.534L199.228 229.657H194.636Z" fill="#FFA8A7"/>
<path d="M198.197 163.134C198.043 162.803 197.95 162.442 197.925 162.073L197.775 159.43L180.352 160.628C180.125 161.947 179.892 163.565 179.659 165.423C185.887 167.174 192.495 166.358 198.197 163.134Z" fill="#FFA8A7"/>
<path d="M186.892 138.742L182.227 139.731C181.201 141.768 180.147 143.68 179.116 145.724C178.345 147.258 177.546 148.888 177.601 150.638C177.637 151.369 177.82 152.083 178.137 152.73C178.454 153.376 178.898 153.941 179.437 154.384C179.721 154.603 179.947 154.898 180.096 155.238C180.244 155.579 180.31 155.956 180.286 156.331L179.859 161.857C187.175 164.254 196.122 162.151 198.091 160.317C198.646 157.434 199.201 154.372 199.755 151.489C200.371 148.415 200.992 145.31 200.105 142.098C199.945 141.519 199.71 140.968 199.406 140.462C198.799 139.419 197.922 138.592 196.883 138.084C195.845 137.575 194.691 137.408 193.565 137.603L186.892 138.742Z" fill="#8AB9F6"/>
<path opacity="0.2" d="M179.238 145.484L179.121 145.718C178.345 147.252 177.546 148.882 177.601 150.632C177.637 151.363 177.82 152.077 178.137 152.723C178.454 153.37 178.898 153.935 179.437 154.378C179.721 154.597 179.947 154.892 180.096 155.232C180.244 155.573 180.31 155.95 180.286 156.325L180.142 158.171C181.606 155.067 183.575 150.554 184.407 147.228L179.238 145.484Z" fill="black"/>
<path d="M198.446 163.613C198.342 163.463 198.251 163.302 198.174 163.134C192.471 166.354 185.864 167.165 179.637 165.411C178.328 175.971 177.196 193.848 177.89 205.643C178.444 219.379 180.807 238.82 180.807 238.82C183.858 239.809 186.143 239.204 187.009 238.491C188.024 224.869 190.259 215.531 188.534 206.524C189.682 200.225 190.431 192.314 190.431 192.314L191.313 206.23L194.314 230.694C195.152 231.157 196.089 231.374 197.029 231.323C197.97 231.271 198.881 230.953 199.672 230.4C201.841 216.412 202.656 206.931 200.754 199.991C203.627 177.038 203.777 171.164 198.446 163.613Z" fill="#455A64"/>
<path opacity="0.3" d="M191.712 189.563L193.31 182.318C195.174 181.988 198.091 180.669 199.622 177.907C197.416 179.787 194.7 180.833 191.89 180.885L190.431 192.314L190.742 197.216L190.864 195.418C191.005 193.446 191.289 191.488 191.712 189.563Z" fill="black"/>
<path d="M181.212 125.203C180.519 123.777 180.202 122.172 180.297 120.565C180.355 119.764 180.59 118.991 180.982 118.309C181.374 117.627 181.911 117.056 182.549 116.645C183.202 116.26 183.956 116.125 184.689 116.264C185.421 116.402 186.089 116.805 186.582 117.406C187.766 116.703 189.105 116.36 190.456 116.413C191.806 116.466 193.119 116.913 194.253 117.707C195.387 118.501 196.301 119.613 196.898 120.923C197.495 122.233 197.752 123.694 197.642 125.149C197.542 126.815 196.976 128.457 197.154 130.118C197.254 131.094 197.609 132.083 197.376 133.03C197.259 133.423 197.068 133.786 196.815 134.095C196.562 134.404 196.252 134.654 195.906 134.828C195.235 135.212 193.659 135.11 192.916 135.278C190.642 137.507 187.791 136.674 185.972 134.678C184.152 132.683 181.212 125.203 181.212 125.203Z" fill="#37474F"/>
<path d="M180.741 127.421L179.321 130.088L180.874 130.705L180.741 127.421Z" fill="#FF9192"/>
<path d="M180.58 126.234C180.807 123.891 181.44 121.691 182.849 120.571C182.467 123.487 183.042 126.455 184.474 128.961C184.615 128.189 184.983 127.487 185.522 126.959C185.784 126.686 186.111 126.497 186.467 126.414C186.823 126.332 187.193 126.358 187.536 126.492C188.007 126.73 188.372 127.161 188.551 127.69C188.739 128.195 188.789 128.747 188.695 129.281C188.602 129.815 188.368 130.309 188.022 130.704C187.677 131.099 187.233 131.378 186.745 131.509C186.256 131.64 185.743 131.617 185.267 131.442C185.463 132.481 185.934 133.436 186.624 134.19C187.313 134.945 188.191 135.466 189.15 135.691C190.411 135.967 191.72 135.832 192.91 135.302L193.498 138.454C191.124 141.187 187.064 139.353 187.064 139.353L186.509 136.249C181.839 136.548 181.401 136.464 180.891 133.683C180.471 131.228 180.366 128.721 180.58 126.234Z" fill="#FFA8A7"/>
<path opacity="0.3" d="M190.919 122.836C191.58 120.804 192.9 119.1 194.636 118.042C195.629 118.878 196.421 119.96 196.944 121.198C197.468 122.435 197.707 123.791 197.642 125.149C197.542 126.815 196.976 128.458 197.154 130.118C197.254 131.094 197.609 132.083 197.376 133.03C197.259 133.423 197.067 133.786 196.815 134.095C196.562 134.404 196.252 134.654 195.906 134.828C195.235 135.212 193.659 135.11 192.916 135.278C192.816 135.374 192.716 135.457 192.617 135.541C191.824 133.914 191.204 132.195 190.769 130.417C190.129 127.929 190.181 125.292 190.919 122.836Z" fill="black"/>
<path d="M192.217 121.086C192.582 119.777 193.324 118.628 194.335 117.806C195.346 116.984 196.573 116.532 197.838 116.515C199.103 116.498 200.34 116.918 201.369 117.713C202.398 118.508 203.166 119.637 203.56 120.936C204.969 125.539 201.342 130.441 202.151 135.218C202.434 136.938 203.261 138.502 203.566 140.222C203.734 141.216 203.712 142.237 203.501 143.222C203.29 144.207 202.895 145.135 202.34 145.949C201.786 146.763 201.083 147.446 200.275 147.955C199.467 148.465 198.571 148.79 197.642 148.912C198.657 147.713 198.674 145.837 198.097 144.333C197.52 142.829 196.488 141.588 195.601 140.27C192.017 134.954 190.431 127.379 192.217 121.086Z" fill="#37474F"/>
<path d="M182.227 139.731C177.235 140.821 172.204 154.587 172.204 154.587L167.451 140.204L168.471 134.81C168.527 134.5 168.504 134.179 168.405 133.881L167.295 130.531C167.241 130.369 167.134 130.234 166.994 130.151C166.854 130.068 166.691 130.044 166.535 130.082C166.448 130.103 166.365 130.144 166.293 130.201C166.22 130.258 166.159 130.331 166.113 130.414C166.068 130.498 166.038 130.591 166.027 130.687C166.015 130.783 166.022 130.881 166.047 130.975L166.896 134.049L165.548 131.286C165.493 131.174 165.419 131.074 165.328 130.994C165.237 130.913 165.132 130.853 165.019 130.816C164.907 130.78 164.789 130.768 164.672 130.782C164.555 130.796 164.442 130.835 164.339 130.897L163.252 131.532C163.05 131.652 162.9 131.854 162.834 132.093C162.769 132.332 162.793 132.589 162.902 132.808L164.078 135.206C162.747 139.329 163.94 140.534 163.94 140.534L166.192 155.822C166.405 157.271 167.035 158.611 167.991 159.653C168.947 160.695 170.183 161.386 171.522 161.629C172.773 161.855 174.057 161.68 175.217 161.125C176.376 160.57 177.359 159.66 178.045 158.507C185.395 146.215 189.471 138.334 182.227 139.731Z" fill="#FFA8A7"/>
<path opacity="0.2" d="M171.45 157.512C171.612 156.522 171.864 155.553 172.204 154.617L171.65 152.867C171.274 153.567 171.059 154.355 171.024 155.163C170.99 155.972 171.136 156.777 171.45 157.512Z" fill="black"/>
<path d="M182.227 139.731C180.009 140.39 177.601 141.642 174.173 148.912C174.556 154.156 181.717 152.837 181.717 152.837C183.609 148.942 185.644 144.879 186.044 142.973C186.715 139.79 185.372 139.053 182.227 139.731Z" fill="#8AB9F6"/>
</svg>
